<svg xmlns="http://www.w3.org/2000/svg" width="100" height="100"><defs><linearGradient id="a" x1="0" x2="0" y1="0" y2="1"><stop offset="0%" stop-color="#4a78d4"/><stop offset="40%" stop-color="#1a3fb0"/><stop offset="100%" stop-color="#061472"/></linearGradient></defs><g class="layer"><path fill="url(#a)" d="M88.11 28 50 6 11.89 28v44L50 94l38.11-22-11.26-6.5L50 81 23.15 65.5v-31L50 19l26.85 15.5z"/><path fill="url(#a)" d="M66.45 40.5 50 31l-16.45 9.5v19L50 69l16.45-9.5-9.52-5.5L50 58l-6.93-4v-8L50 42l6.93 4z"/><path fill="#c8e2ff" d="m50 50-6.93 4v-8L50 42z"/><path fill="#3a80e8" d="M50 50v-8l6.93 4v8z"/><path fill="#1045b8" d="m50 50 6.93 4L50 58l-6.93-4z"/></g></svg>