<!-- public/logo-icon.svg -->
<svg width="512" height="512" viewBox="0 0 512 512" fill="none" xmlns="http://www.w3.org/2000/svg">
  <!-- háttér "üveges" kártya -->
  <defs>
    <linearGradient id="g1" x1="64" y1="64" x2="448" y2="448" gradientUnits="userSpaceOnUse">
      <stop stop-color="#3B82F6"></stop>
      <stop offset="1" stop-color="#10B981"></stop>
    </linearGradient>
    <linearGradient id="g2" x1="0" y1="0" x2="0" y2="1">
      <stop stop-color="white" stop-opacity="0.65"></stop>
      <stop offset="1" stop-color="white" stop-opacity="0.35"></stop>
    </linearGradient>
    <filter id="soft" x="-20%" y="-20%" width="140%" height="140%">
      <feGaussianBlur in="SourceAlpha" stdDeviation="12" result="blur"></feGaussianBlur>
      <feOffset dy="6" result="offset"></feOffset>
      <feMerge><feMergeNode in="offset"></feMergeNode><feMergeNode in="SourceGraphic"></feMergeNode></feMerge>
    </filter>
  </defs>

  <rect x="16" y="16" width="480" height="480" rx="88" fill="url(#g1)"></rect>
  <rect x="64" y="88" width="384" height="336" rx="28" fill="url(#g2)" filter="url(#soft)"></rect>

  <!-- naptár-fejléc pöttyök -->
  <circle cx="104" cy="132" r="8" fill="#3B82F6"></circle>
  <circle cx="136" cy="132" r="8" fill="#10B981"></circle>
  <circle cx="168" cy="132" r="8" fill="#0EA5E9"></circle>

  <!-- ellenőrzőlista jelölőnégyzet + pipa -->
  <rect x="108" y="188" width="40" height="40" rx="10" fill="#E2E8F0"></rect>
  <path d="M116 208l12 12 20-24" stroke="#10B981" stroke-width="8" stroke-linecap="round" stroke-linejoin="round"></path>

  <!-- sorok -->
  <rect x="168" y="192" width="240" height="12" rx="6" fill="#1F2937" opacity="0.75"></rect>
  <rect x="168" y="214" width="184" height="12" rx="6" fill="#1F2937" opacity="0.45"></rect>

  <rect x="108" y="254" width="40" height="40" rx="10" fill="#E2E8F0"></rect>
  <rect x="168" y="258" width="220" height="12" rx="6" fill="#1F2937" opacity="0.75"></rect>
  <rect x="168" y="280" width="140" height="12" rx="6" fill="#1F2937" opacity="0.45"></rect>

  <rect x="108" y="320" width="40" height="40" rx="10" fill="#E2E8F0"></rect>
  <rect x="168" y="324" width="200" height="12" rx="6" fill="#1F2937" opacity="0.75"></rect>
  <rect x="168" y="346" width="120" height="12" rx="6" fill="#1F2937" opacity="0.45"></rect>

  <!-- talár (hallgatói motívum) -->
  <path d="M392 176l-44 22-44-22 44-22 44 22z" fill="#0EA5E9" opacity="0.85"></path>
  <path d="M348 198v34c0 10 8 18 18 18s18-8 18-18v-34" stroke="white" stroke-opacity="0.8" stroke-width="8" stroke-linecap="round"></path>
</svg>
