<?xml version="1.0" encoding="UTF-8"?>
<svg version="1.1" xmlns="http://www.w3.org/2000/svg" width="346" height="400">
<path d="M0 0 C2.30019099 0.35100437 4.60094789 0.69810602 6.90179443 1.04478455 C8.42109349 1.27388022 9.94018128 1.50438172 11.45904541 1.73634338 C16.95062464 2.56963387 22.45040842 3.26639847 27.96801758 3.90673828 C43.79362357 5.77545433 53.19764764 10.1854342 65.63476562 19.95947266 C68.76020415 22.37031114 71.96382948 24.66663873 75.16625977 26.97363281 C98.41768278 43.77209909 98.41768278 43.77209909 100.875 50.6875 C102.37695896 61.46318231 98.69344516 70.92377158 92.515625 79.61328125 C88.37050159 84.85390156 85.16098751 88.173105 78.875 90.6875 C79.865 86.3975 80.855 82.1075 81.875 77.6875 C80.163125 77.48253906 78.45125 77.27757813 76.6875 77.06640625 C74.4166654 76.79428144 72.14583213 76.52214543 69.875 76.25 C68.74964844 76.11529297 67.62429688 75.98058594 66.46484375 75.84179688 C64.81162109 75.64360352 64.81162109 75.64360352 63.125 75.44140625 C62.04186523 75.3125 60.95873047 75.18359375 59.84277344 75.05078125 C57.43772935 74.75638296 55.0402278 74.43209566 52.640625 74.09765625 C48.27932477 73.62261836 44.00743476 73.54058783 39.625 73.5625 C38.83609375 73.55863281 38.0471875 73.55476563 37.234375 73.55078125 C36.0896875 73.55271484 36.0896875 73.55271484 34.921875 73.5546875 C34.23963867 73.55581543 33.55740234 73.55694336 32.85449219 73.55810547 C30.76065003 73.69497478 28.89133016 74.12001971 26.875 74.6875 C26.24338919 82.26682968 28.90352754 87.38409517 33.5 93.3125 C38.77400658 99.14728702 46.155786 103.28400655 53.875 104.6875 C56.88423975 104.82296417 59.86575908 104.81032616 62.875 104.6875 C60.13329178 109.8662822 56.55504488 114.79415171 50.875 116.6875 C39.88107238 117.89802272 32.55990946 113.66586353 23.9609375 107.22265625 C19.60019034 103.64021966 15.51974265 99.79017364 11.43212891 95.90185547 C6.94484586 91.64093727 2.31093821 87.6715067 -2.5390625 83.82421875 C-5.24679173 81.58686545 -7.72739587 79.19306256 -10.25 76.75 C-16.52940393 70.96397781 -23.65617996 67.01677976 -31.07519531 62.86474609 C-34.07924653 61.13945608 -36.96418852 59.25328392 -39.875 57.375 C-54.69111129 48.20312158 -70.13323993 45.51988756 -87.25 48.875 C-104.92351807 53.15053336 -120.49561058 62.45273977 -130.3125 78.08203125 C-139.29650251 93.01324776 -143.7146127 107.87187134 -143.5 125.375 C-143.48839844 126.60105957 -143.47679687 127.82711914 -143.46484375 129.09033203 C-142.81236484 165.54759138 -126.87671388 193.37255829 -102.44238281 219.27294922 C-100.68358525 221.16147277 -98.99433571 223.10538625 -97.3125 225.0625 C-94.62926706 228.16803352 -91.78278747 231.04764287 -88.859375 233.92578125 C-86.50872945 236.31348652 -84.33834227 238.83706068 -82.15234375 241.375 C-79.17551709 244.77053252 -76.10579231 248.07946997 -73.03222656 251.38745117 C-67.15662135 257.74634501 -67.15662135 257.74634501 -65.125 260.6875 C-65.455 261.6775 -65.785 262.6675 -66.125 263.6875 C-80.57872648 252.82462119 -93.38448005 240.4896202 -106.1875 227.75 C-106.97278076 226.96947266 -107.75806152 226.18894531 -108.56713867 225.38476562 C-112.7244392 221.2154485 -116.71356867 216.96112616 -120.55444336 212.4987793 C-122.75966062 209.95556356 -125.07038407 207.51557279 -127.375 205.0625 C-153.05734571 177.21728962 -168.35963355 145.17525118 -167.48046875 106.71484375 C-167.085824 97.81182905 -165.37925662 89.28857456 -163.125 80.6875 C-162.84785156 79.59566406 -162.57070312 78.50382812 -162.28515625 77.37890625 C-157.869982 62.38359096 -149.18663219 49.4372257 -139.125 37.6875 C-137.94550781 36.27984375 -137.94550781 36.27984375 -136.7421875 34.84375 C-119.89021376 15.34948072 -92.78308608 1.32138665 -67.04467773 -0.65869141 C-63.17218947 -0.9204963 -59.297491 -1.12741173 -55.42089844 -1.31787109 C-53.02484497 -1.43627228 -50.62969333 -1.56685625 -48.234375 -1.69921875 C-31.82723125 -2.57550866 -16.25192094 -2.57052601 0 0 Z M-3.125 20.6875 C-2.82579167 28.61652067 0.15042672 35.41716662 5.39453125 41.4296875 C9.36049452 44.96661517 13.21204547 46.69142766 18.5234375 46.68359375 C25.78528786 46.29360531 25.78528786 46.29360531 31.875 42.6875 C32.76158466 40.09627257 32.76158466 40.09627257 32.875 37.6875 C29.80644268 35.13644285 26.94619435 33.86192058 23.1875 32.5625 C16.61215388 30.13410513 10.57018105 27.01533898 4.43676758 23.63427734 C0.86787647 21.46461108 0.86787647 21.46461108 -3.125 20.6875 Z " fill="#16B6C6" transform="translate(200.125,20.3125)"/>
<path d="M0 0 C1.76171875 1.19140625 1.76171875 1.19140625 3.3125 2.4375 C3.89644531 2.90027344 4.48039062 3.36304687 5.08203125 3.83984375 C6.3125 5.4375 6.3125 5.4375 6.2890625 7.203125 C4.85256194 10.48983829 2.75629791 13.2787845 0.6875 16.1875 C-10.15451158 32.002412 -16.78812491 49.88096172 -14.32421875 69.30078125 C-10.08389716 91.54083528 2.44096821 112.82693049 12.53735352 132.87304688 C21.3125 150.33737553 21.3125 150.33737553 21.3125 153.4375 C25.40131389 152.89423102 27.53162921 150.74037186 30.5 148 C31.38042969 147.19691406 32.26085937 146.39382812 33.16796875 145.56640625 C35.96956487 142.78522248 36.29058301 142.08388638 36.42602539 138.08935547 C36.42586688 136.66112303 36.42020735 135.23288458 36.41015625 133.8046875 C36.4087413 133.05285187 36.40732635 132.30101624 36.40586853 131.52639771 C36.40026465 129.1217249 36.38771157 126.71714473 36.375 124.3125 C36.3699855 122.68359509 36.3654225 121.05468873 36.36132812 119.42578125 C36.35029397 115.42965173 36.33302679 111.43359158 36.3125 107.4375 C35.55904297 107.04425537 34.80558594 106.65101074 34.02929688 106.24584961 C33.03994141 105.71999268 32.05058594 105.19413574 31.03125 104.65234375 C30.05091797 104.13534912 29.07058594 103.61835449 28.06054688 103.08569336 C22.01078375 99.45723291 18.33294979 94.17233263 16.3125 87.4375 C15.42593626 79.11365154 16.72934212 73.35137558 21.375 66.3125 C25.5043428 61.72708053 30.99913642 58.98028748 37.0546875 57.98828125 C44.59125553 57.67870551 51.67860025 59.21409633 57.421875 64.30859375 C63.15366786 70.57330124 64.84737238 75.84092528 64.69140625 84.3046875 C64.02972773 89.77547281 61.8404612 94.99120507 57.82937622 98.87271118 C55.41892266 101.26596298 53.52957564 103.1918385 52.93380737 106.61058044 C52.9839581 109.09497649 53.20942943 111.50486638 53.5 113.97265625 C53.6411694 115.84273088 53.77485401 117.71338245 53.90185547 119.58447266 C54.00793121 121.03602753 54.00793121 121.03602753 54.1161499 122.51690674 C55.69510096 146.50547776 55.69510096 146.50547776 49.80999756 154.24845886 C46.53017045 157.95482722 42.94737658 161.04778412 38.9609375 163.96899414 C34.89391603 166.93523156 34.89391603 166.93523156 31.3125 170.4375 C30.81384612 174.17420518 31.95654929 176.98330937 33.3125 180.4375 C33.74912414 182.04060815 34.16744781 183.64882429 34.56640625 185.26171875 C34.78095459 186.05481445 34.99550293 186.84791016 35.21655273 187.66503906 C41.52364276 211.22834612 39.75438964 232.21785759 28.125 253.6875 C18.76375223 268.75134193 5.50338494 279.54246835 -11.6875 284.4375 C-12.33976562 284.63214844 -12.99203125 284.82679688 -13.6640625 285.02734375 C-16.12819239 285.52682954 -18.42532091 285.53305499 -20.9375 285.5 C-21.82953125 285.49097656 -22.7215625 285.48195313 -23.640625 285.47265625 C-24.65382813 285.45525391 -24.65382813 285.45525391 -25.6875 285.4375 C-22.98811374 283.63790916 -20.32232711 282.22061717 -17.4375 280.75 C-4.7207975 273.76500441 2.42367248 261.7965423 6.62109375 248.09375 C12.61312385 225.07352135 5.90044905 203.57340894 -5.33984375 183.484375 C-13.52251464 170.12001276 -23.6590495 158.02309849 -34.02441406 146.32275391 C-37.43456793 142.45704514 -40.79116743 138.5444739 -44.15722656 134.64038086 C-47.00502499 131.34647368 -49.90492254 128.12228185 -52.875 124.9375 C-70.65483196 104.91179453 -81.86979601 78.89431374 -80.5625 51.9375 C-79.25011161 32.83131239 -72.89532519 16.53746468 -58.6875 3.4375 C-55.50807276 0.97505091 -52.33757932 -0.88468576 -48.6875 -2.5625 C-47.80964844 -2.97242187 -46.93179688 -3.38234375 -46.02734375 -3.8046875 C-31.54749717 -9.58069233 -13.35100086 -7.99606222 0 0 Z M32.3125 75.4375 C30.05752147 78.18269126 30.3125 79.73220687 30.3125 83.375 C30.87243299 86.85830405 31.44893769 87.59342879 33.9375 90.4375 C37.88624347 92.77749613 39.80119313 93.17571385 44.3125 92.4375 C47.34810696 90.61613582 48.91850091 89.11804389 50.6875 86.0625 C51.48548003 82.71098387 51.34277506 80.73438018 50.3125 77.4375 C47.7104108 73.99355841 46.01149566 72.6535532 41.875 71.375 C37.43180066 71.45295087 35.65104529 72.56479824 32.3125 75.4375 Z " fill="#12A2B3" transform="translate(154.6875,90.5625)"/>
<path d="M0 0 C5.90089765 3.39253562 10.17154196 7.90350244 13.0625 14.0625 C14.53809798 21.76840057 13.52690951 28.65481274 9.1484375 35.2109375 C4.3413813 41.11549511 -0.29509047 44.50343206 -7.9375 45.43359375 C-9.236875 45.55863281 -10.53625 45.68367188 -11.875 45.8125 C-19.40869684 46.71060573 -22.40220131 48.4956884 -27.375 54 C-28.48338456 55.10391527 -29.59862384 56.20096938 -30.71875 57.29296875 C-39.00268651 65.3726246 -39.00268651 65.3726246 -46.66125488 74.03688049 C-48.375 76 -48.375 76 -50.3873291 77.83653259 C-56.04509881 83.25766041 -57.3316829 87.41634528 -57.58630371 95.1676178 C-57.58998962 97.06658058 -57.58998962 97.06658058 -57.59375 99.00390625 C-57.62682251 100.32293442 -57.65989502 101.64196259 -57.69396973 103.0009613 C-57.78071502 106.47791261 -57.82117307 109.95386147 -57.85144043 113.43170166 C-57.89080745 116.99217303 -57.97471834 120.55157825 -58.0546875 124.11132812 C-58.20462987 131.07381371 -58.30560746 138.03625767 -58.375 145 C-52.37638262 139.79739153 -46.58748034 134.45557026 -40.9375 128.875 C-40.12345703 128.08996094 -39.30941406 127.30492187 -38.47070312 126.49609375 C-37.69791016 125.73167969 -36.92511719 124.96726562 -36.12890625 124.1796875 C-35.43095947 123.49632324 -34.7330127 122.81295898 -34.01391602 122.10888672 C-32.12932517 119.68387619 -31.66560123 118.03499575 -31.375 115 C-31.9300116 112.64036381 -31.9300116 112.64036381 -32.875 110.3125 C-34.99888751 103.73529995 -34.9218868 97.49765582 -31.75 91.25 C-27.62635436 84.96069874 -21.74394115 80.59616054 -14.375 79 C-7.81693921 78.23595408 -1.18886535 78.67033564 4.625 82 C10.11982025 86.90845389 14.19119807 91.77799749 14.9609375 99.26953125 C15.05462626 107.76710175 14.72514338 113.60635395 8.82421875 119.9296875 C3.73205919 124.69555334 -0.73451768 128.07737043 -7.8671875 127.92578125 C-9.16914063 127.86777344 -10.47109375 127.80976563 -11.8125 127.75 C-18.36717464 127.61552593 -18.36717464 127.61552593 -23.75 130.9375 C-24.98556265 132.26686893 -26.19284126 133.62292429 -27.375 135 C-28.8896633 136.48548415 -30.41074317 137.96444819 -31.9375 139.4375 C-34.52521861 142.01543517 -36.96199486 144.67272597 -39.3359375 147.4453125 C-44.22401313 153.05982593 -49.43450866 158.35603108 -54.66967773 163.64477539 C-55.84116456 164.83276431 -57.00727149 166.02608432 -58.16772461 167.22485352 C-69.42808116 178.85262133 -82.33349419 188.64568588 -97.375 195 C-98.365 194.67 -99.355 194.34 -100.375 194 C-99.75753906 193.56171875 -99.14007813 193.1234375 -98.50390625 192.671875 C-84.5145089 182.19579662 -77.1975967 169.02547182 -74.375 152 C-73.23697006 142.41525894 -73.12665105 132.77706421 -72.93026733 123.13839722 C-72.83702289 118.68701776 -72.72397646 114.23613002 -72.61328125 109.78515625 C-72.50228723 105.29290496 -72.39162744 100.80076466 -72.29833984 96.30810547 C-72.23771021 93.51696157 -72.15535992 90.72771938 -72.0625 87.9375 C-72.0521875 87.19757813 -72.041875 86.45765625 -72.03125 85.6953125 C-71.65870444 76.41715399 -65.86145175 71.11990806 -59.51171875 65.125 C-57.9700059 63.63092745 -56.42901114 62.13611363 -54.88867188 60.640625 C-52.46930954 58.30825817 -50.04428456 55.98272058 -47.60620117 53.66992188 C-45.24430583 51.42271392 -42.90809274 49.15124689 -40.57421875 46.875 C-39.83789719 46.18937988 -39.10157562 45.50375977 -38.34294128 44.79736328 C-36.45057708 42.93414749 -34.80507615 41.23798442 -33.375 39 C-33.37333341 34.63714278 -34.54033189 31.23054379 -36.0625 27.1875 C-38.16220834 20.42520402 -36.90106549 14.93908909 -33.6875 8.75 C-25.0332757 -1.54150998 -12.94272226 -5.87765827 0 0 Z M-20.375 16 C-21.99264019 19.23528039 -21.95243699 22.50293775 -21.375 26 C-19.65778974 29.32754021 -17.46120469 31.51406632 -14 33.0625 C-10.19008606 32.97178776 -7.691312 31.84239555 -4.375 30 C-2.07020158 27.24911156 -1.44419675 25.55357401 -1 22 C-1.42802805 18.57577558 -2.31417934 16.74776087 -4.375 14 C-10.26508133 10.07327911 -15.60200289 11.08236661 -20.375 16 Z M-18.375 97 C-20.29858449 101.24791574 -20.59092126 103.23792497 -19.3125 107.75 C-17.20417482 111.28654546 -16.23645868 112.62703691 -12.375 114 C-8.38096081 114.18299383 -5.35162761 113.60100161 -1.9375 111.5 C0.36555343 107.81511451 0.82530788 104.31432358 0.625 100 C-0.58225462 97.01363331 -1.57320992 95.60134256 -4.125 93.6875 C-9.99181179 91.89486306 -14.22251148 92.37294136 -18.375 97 Z " fill="#15B4C5" transform="translate(283.375,176)"/>
<path d="M0 0 C5.52362906 3.37241978 9.31629935 8.26716522 11.296875 14.40234375 C12.42422869 22.79222855 11.08375507 29.42240467 6.296875 36.40234375 C5.80744415 36.87596344 5.31801331 37.34958313 4.81375122 37.83755493 C2.40329766 40.23080673 0.51395064 42.15668225 -0.08181763 45.57542419 C-0.03166674 48.05982829 0.1937672 50.46970549 0.484375 52.9375 C0.62582052 54.80789688 0.75974847 56.6788743 0.88696289 58.55029297 C0.95771027 59.5180365 1.02845764 60.48578003 1.10134888 61.48284912 C2.73535519 86.40329435 2.73535519 86.40329435 -4.54296875 94.984375 C-8.96771057 99.7875164 -14.14476194 103.78748293 -19.57006836 107.39990234 C-22.28268646 109.94641644 -22.44840355 111.76282181 -22.703125 115.40234375 C-24.703125 112.40234375 -24.703125 112.40234375 -24.62133789 110.48022461 C-23.3351967 107.569736 -21.45545934 106.18260735 -19.01171875 104.15625 C-7.46601213 94.8338863 -7.46601213 94.8338863 -1.27734375 82.05078125 C-1.11065807 77.66125523 -1.61868477 73.40126187 -2.31738281 69.07226562 C-2.85856345 65.32647355 -2.97401803 61.59753062 -3.10693359 57.81860352 C-3.24123403 54.00876596 -3.47424097 50.20754067 -3.703125 46.40234375 C-5.188125 46.89734375 -5.188125 46.89734375 -6.703125 47.40234375 C-6.6825 46.59796875 -6.661875 45.79359375 -6.640625 44.96484375 C-6.40678879 42.4687949 -6.40678879 42.4687949 -7.703125 41.40234375 C-8.033125 43.38234375 -8.363125 45.36234375 -8.703125 47.40234375 C-9.363125 47.40234375 -10.023125 47.40234375 -10.703125 47.40234375 C-10.703125 49.05234375 -10.703125 50.70234375 -10.703125 52.40234375 C-11.033125 52.40234375 -11.363125 52.40234375 -11.703125 52.40234375 C-12.693125 48.93734375 -12.693125 48.93734375 -13.703125 45.40234375 C-13.67694092 46.46670654 -13.65075684 47.53106934 -13.6237793 48.62768555 C-13.53307724 52.58775702 -13.47580411 56.54773726 -13.4284668 60.50854492 C-13.40336786 62.2206162 -13.36928071 63.93258079 -13.32592773 65.64428711 C-13.26506761 68.1094802 -13.23687068 70.5732536 -13.21484375 73.0390625 C-13.18903732 73.80071213 -13.1632309 74.56236176 -13.13664246 75.34709167 C-13.13453851 79.36032963 -13.48164509 81.13345615 -16.06640625 84.27148438 C-17.37158203 85.32625977 -17.37158203 85.32625977 -18.703125 86.40234375 C-20.02763672 87.61857422 -20.02763672 87.61857422 -21.37890625 88.859375 C-22.24902344 89.63667969 -23.11914062 90.41398437 -24.015625 91.21484375 C-25.34013672 92.40013672 -25.34013672 92.40013672 -26.69140625 93.609375 C-27.35527344 94.20105469 -28.01914063 94.79273438 -28.703125 95.40234375 C-31.04092024 94.44597297 -32.41941869 93.87024743 -33.75 91.67578125 C-34.40104167 89.91796875 -35.05208333 88.16015625 -35.703125 86.40234375 C-34.713125 86.73234375 -33.723125 87.06234375 -32.703125 87.40234375 C-32.373125 89.05234375 -32.043125 90.70234375 -31.703125 92.40234375 C-27.61431111 91.85907477 -25.48399579 89.70521561 -22.515625 86.96484375 C-21.63519531 86.16175781 -20.75476563 85.35867187 -19.84765625 84.53125 C-17.04606013 81.75006623 -16.72504199 81.04873013 -16.58959961 77.05419922 C-16.58975812 75.62596678 -16.59541765 74.19772833 -16.60546875 72.76953125 C-16.6068837 72.01769562 -16.60829865 71.26585999 -16.60975647 70.49124146 C-16.61536035 68.08656865 -16.62791343 65.68198848 -16.640625 63.27734375 C-16.6456395 61.64843884 -16.6502025 60.01953248 -16.65429688 58.390625 C-16.66533103 54.39449548 -16.68259821 50.39843533 -16.703125 46.40234375 C-17.45658203 46.00909912 -18.21003906 45.61585449 -18.98632812 45.21069336 C-19.97568359 44.68483643 -20.96503906 44.15897949 -21.984375 43.6171875 C-22.96470703 43.10019287 -23.94503906 42.58319824 -24.95507812 42.05053711 C-31.00484125 38.42207666 -34.68267521 33.13717638 -36.703125 26.40234375 C-37.58968874 18.07849529 -36.28628288 12.31621933 -31.640625 5.27734375 C-23.25708903 -4.032135 -10.96630658 -4.90689833 0 0 Z M-20.703125 14.40234375 C-22.95810353 17.14753501 -22.703125 18.69705062 -22.703125 22.33984375 C-22.14319201 25.8231478 -21.56668731 26.55827254 -19.078125 29.40234375 C-15.12938153 31.74233988 -13.21443187 32.1405576 -8.703125 31.40234375 C-5.66751804 29.58097957 -4.09712409 28.08288764 -2.328125 25.02734375 C-1.53014497 21.67582762 -1.67284994 19.69922393 -2.703125 16.40234375 C-5.3052142 12.95840216 -7.00412934 11.61839695 -11.140625 10.33984375 C-15.58382434 10.41779462 -17.36457971 11.52964199 -20.703125 14.40234375 Z " fill="#15B4C5" transform="translate(207.703125,151.59765625)"/>
<path d="M0 0 C0.495 0.99 0.495 0.99 1 2 C0.43192627 2.23074219 -0.13614746 2.46148438 -0.72143555 2.69921875 C-32.86380406 15.85117546 -57.90637306 35.40953755 -71.796875 68.08984375 C-77.20683486 81.65027149 -79.5301699 94.75908391 -79.375 109.375 C-79.36951645 110.38981949 -79.36951645 110.38981949 -79.36392212 111.42514038 C-79.29957243 121.58864194 -78.68259676 131.16797096 -76 141 C-75.69255859 142.30710938 -75.69255859 142.30710938 -75.37890625 143.640625 C-72.5974484 154.35182915 -67.15389509 164.86239819 -61 174 C-60.01 172.02 -59.02 170.04 -58 168 C-57.34 168.33 -56.68 168.66 -56 169 C-56 166.69 -56 164.38 -56 162 C-56.66 162 -57.32 162 -58 162 C-57.9071875 160.2675 -57.9071875 160.2675 -57.8125 158.5 C-57.7924104 154.1539496 -58.54578113 150.29600628 -59.5 146.0625 C-64.42988325 122.62046065 -61.66813112 96.44883346 -48.56640625 76.0546875 C-46.19856786 72.56995279 -43.65274169 69.27258166 -41 66 C-40.43796875 65.30519531 -39.8759375 64.61039062 -39.296875 63.89453125 C-27.4962537 50.87212845 -8.22855091 42.91580337 9 42 C25.20147712 41.72510749 38.4638958 46.97202592 51.9296875 55.47558594 C53.78229064 56.64538953 55.64737514 57.79288171 57.515625 58.9375 C67.28420668 64.9760731 67.28420668 64.9760731 70 68 C66.04913108 67.31415234 63.00552922 65.43453511 59.5625 63.4375 C58.94705322 63.08324951 58.33160645 62.72899902 57.69750977 62.36401367 C53.53892622 59.95355671 49.4865921 57.40352487 45.4375 54.8125 C30.54260972 45.57366695 15.106437 42.80990936 -2.125 46.1875 C-19.79851807 50.46303336 -35.37061058 59.76523977 -45.1875 75.39453125 C-54.17150251 90.32574776 -58.5896127 105.18437134 -58.375 122.6875 C-58.36339844 123.91355957 -58.35179688 125.13961914 -58.33984375 126.40283203 C-57.68736484 162.86009138 -41.75171388 190.68505829 -17.31738281 216.58544922 C-15.55858525 218.47397277 -13.86933571 220.41788625 -12.1875 222.375 C-9.50426706 225.48053352 -6.65778747 228.36014287 -3.734375 231.23828125 C-1.38372945 233.62598652 0.78665773 236.14956068 2.97265625 238.6875 C5.94948291 242.08303252 9.01920769 245.39196997 12.09277344 248.69995117 C17.96837865 255.05884501 17.96837865 255.05884501 20 258 C19.67 258.99 19.34 259.98 19 261 C4.54627352 250.13712119 -8.25948005 237.8021202 -21.0625 225.0625 C-21.84778076 224.28197266 -22.63306152 223.50144531 -23.44213867 222.69726562 C-27.5994392 218.5279485 -31.58856867 214.27362616 -35.42944336 209.8112793 C-37.63466062 207.26806356 -39.94538407 204.82807279 -42.25 202.375 C-67.93234571 174.52978962 -83.23463355 142.48775118 -82.35546875 104.02734375 C-81.960824 95.12432905 -80.25425662 86.60107456 -78 78 C-77.72285156 76.90816406 -77.44570312 75.81632812 -77.16015625 74.69140625 C-72.744982 59.69609096 -64.06163219 46.7497257 -54 35 C-52.82050781 33.59234375 -52.82050781 33.59234375 -51.6171875 32.15625 C-38.55395129 17.04477118 -19.21800355 5.49085816 0 0 Z " fill="#2FC8D2" transform="translate(115,23)"/>
<path d="M0 0 C0.33 0 0.66 0 1 0 C1.03440186 0.67353516 1.06880371 1.34707031 1.10424805 2.04101562 C3.17448391 39.70967931 18.58110981 64.02598343 43.63671875 91.359375 C46.78419017 94.87621909 49.75819977 98.51677964 52.71875 102.19140625 C55.10177494 105.12530168 57.54957819 107.99726698 60 110.875 C70.60327016 123.61205517 79.449378 137.47348169 85.875 152.75 C86.16133301 153.42256836 86.44766602 154.09513672 86.74267578 154.78808594 C90.7540055 164.71148368 91.32312366 174.55067716 91.56640625 185.140625 C91.72786634 190.19502775 92.27180655 194.20277335 94 199 C93.67 199.99 93.34 200.98 93 202 C92.34 202 91.68 202 91 202 C92.28610235 204.5722047 93.33393981 205.00974907 96 206 C98.12042756 206.1576585 98.12042756 206.1576585 100 205 C101.78379415 202.01647106 101.78379415 202.01647106 103 199 C104.32 199 105.64 199 107 199 C108.64681249 192.69239743 110.26309887 186.48472993 111 180 C111.66 180 112.32 180 113 180 C115.07572052 174.028185 115.30261787 168.6047198 115.25 162.3125 C115.25773437 161.37599609 115.26546875 160.43949219 115.2734375 159.47460938 C115.27085937 158.57162109 115.26828125 157.66863281 115.265625 156.73828125 C115.26224121 155.51685425 115.26224121 155.51685425 115.25878906 154.27075195 C114.96830598 151.72189989 114.38068609 150.15653034 113 148 C111.515 147.01 111.515 147.01 110 146 C108.65 139.7 108.65 139.7 110 137 C109.835 136.38125 109.67 135.7625 109.5 135.125 C108.93203466 132.71114731 109.25055468 131.33160767 110 129 C110.66 129 111.32 129 112 129 C119.83803172 156.44920922 121.71683004 179.58046761 107.8125 205.25 C98.45125223 220.31384193 85.19088494 231.10496835 68 236 C67.34773438 236.19464844 66.69546875 236.38929688 66.0234375 236.58984375 C63.55930761 237.08932954 61.26217909 237.09555499 58.75 237.0625 C57.85796875 237.05347656 56.9659375 237.04445313 56.046875 237.03515625 C55.03367187 237.01775391 55.03367187 237.01775391 54 237 C56.69938626 235.20040916 59.36517289 233.78311717 62.25 232.3125 C74.9667025 225.32750441 82.11117248 213.3590423 86.30859375 199.65625 C92.30062385 176.63602135 85.58794905 155.13590894 74.34765625 135.046875 C66.16498536 121.68251276 56.0284505 109.58559849 45.66308594 97.88525391 C42.25293207 94.01954514 38.89633257 90.1069739 35.53027344 86.20288086 C32.68247501 82.90897368 29.78257746 79.68478185 26.8125 76.5 C10.47158067 58.09496455 -1.609047 33.27153046 -0.89453125 8.31640625 C-0.66794091 5.52835986 -0.38817756 2.76969934 0 0 Z " fill="#14B5C5" transform="translate(75,139)"/>
<path d="M0 0 C5.26815082 3.14533055 8.60148801 7.50687202 10.5 13.375 C11.16 13.375 11.82 13.375 12.5 13.375 C12.55428973 15.60389496 12.59292338 17.83317471 12.625 20.0625 C12.64820313 21.30386719 12.67140625 22.54523438 12.6953125 23.82421875 C12.51032021 27.18737857 11.95767895 29.3735587 10.5 32.375 C9.51 31.88 9.51 31.88 8.5 31.375 C8.025625 32.24125 7.55125 33.1075 7.0625 34 C3.96703308 38.67093754 -1.08604578 42.10212483 -6.3125 44.05078125 C-10.81760174 44.71850169 -15.43065616 44.26905284 -19.96875 44.1171875 C-23.62487404 44.38411691 -24.92293256 44.86367407 -27.5 47.375 C-26.83333333 46.04166667 -26.16666667 44.70833333 -25.5 43.375 C-25.21125 42.653125 -24.9225 41.93125 -24.625 41.1875 C-23.5 39.375 -23.5 39.375 -21.375 38.625 C-20.75625 38.5425 -20.1375 38.46 -19.5 38.375 C-19.5 39.375 -19.5 40.375 -19.5 41.375 C-18.015 40.88 -18.015 40.88 -16.5 40.375 C-16.17 39.715 -15.84 39.055 -15.5 38.375 C-14.015 38.87 -14.015 38.87 -12.5 39.375 C-12.83 40.035 -13.16 40.695 -13.5 41.375 C-10.035 40.88 -10.035 40.88 -6.5 40.375 C-6.5 39.715 -6.5 39.055 -6.5 38.375 C-8.1396875 38.189375 -8.1396875 38.189375 -9.8125 38 C-13.5 37.375 -13.5 37.375 -16.5 35.375 C-18.15583225 34.68186092 -19.82110979 34.01025576 -21.5 33.375 C-20.84 32.055 -20.18 30.735 -19.5 29.375 C-18.51 30.035 -17.52 30.695 -16.5 31.375 C-12.21548876 31.99280406 -8.52316351 31.83215817 -4.5625 30.0625 C-2.14768644 28.08674345 -0.67035479 26.4327844 -0.1640625 23.2890625 C-0.09606067 19.30415509 -0.16353728 16.96069437 -2.1875 13.4375 C-6.03451554 10.00637804 -8.31326014 9.375 -13.5 9.375 C-16.7448726 9.87798592 -18.30063559 10.76008842 -20.4375 13.25 C-22.59297917 16.22285727 -22.59297917 16.22285727 -23.5 19.375 C-24.49 19.045 -25.48 18.715 -26.5 18.375 C-26.83 20.685 -27.16 22.995 -27.5 25.375 C-28.49 25.375 -29.48 25.375 -30.5 25.375 C-30.335 26.055625 -30.17 26.73625 -30 27.4375 C-29.42996072 30.78648078 -29.5 33.98348603 -29.5 37.375 C-29.17 38.035 -28.84 38.695 -28.5 39.375 C-29.4375 42 -29.4375 42 -30.5 44.375 C-31.49 44.045 -32.48 43.715 -33.5 43.375 C-32.84 43.375 -32.18 43.375 -31.5 43.375 C-31.5 42.385 -31.5 41.395 -31.5 40.375 C-32.16 40.045 -32.82 39.715 -33.5 39.375 C-32.84 38.385 -32.18 37.395 -31.5 36.375 C-31.81627097 32.83276514 -32.37548091 29.74855726 -33.5 26.375 C-34.05680615 19.7024542 -34.4676928 13.0211367 -30.9765625 7.09375 C-23.5019071 -1.60690708 -10.57878083 -4.87473457 0 0 Z " fill="#15B4C4" transform="translate(285.5,258.625)"/>
<path d="M0 0 C7.10960385 3.23857721 12.2829728 8.13597331 15.609375 15.22265625 C17.08497298 22.92855682 16.07378451 29.81496899 11.6953125 36.37109375 C6.8882563 42.27565136 2.25178453 45.66358831 -5.390625 46.59375 C-6.69 46.71878906 -7.989375 46.84382813 -9.328125 46.97265625 C-16.71793939 47.82138741 -19.98548283 49.7045214 -24.828125 55.16015625 C-26.48964084 56.81118934 -28.15638806 58.45697324 -29.828125 60.09765625 C-31.16399429 61.44932129 -32.4982588 62.80258451 -33.828125 64.16015625 C-34.488125 63.83015625 -35.148125 63.50015625 -35.828125 63.16015625 C-26.94140625 54.2734375 -26.94140625 54.2734375 -25.34545898 52.69506836 C-23.94038981 51.27372163 -22.59593594 49.79313799 -21.2578125 48.30859375 C-18.49228918 45.86319531 -17.26603551 45.54395782 -13.640625 45.47265625 C-9.7649798 45.51458701 -9.7649798 45.51458701 -6.828125 43.16015625 C-6.47400156 41.83219334 -6.14290946 40.49799018 -5.828125 39.16015625 C-5.015625 36.97265625 -5.015625 36.97265625 -3.828125 35.16015625 C-1.703125 34.41015625 -1.703125 34.41015625 0.171875 34.16015625 C-2.88082963 34.00204237 -2.88082963 34.00204237 -5.828125 35.16015625 C-8.16112325 35.19969859 -10.49520689 35.20417357 -12.828125 35.16015625 C-13.158125 34.50015625 -13.488125 33.84015625 -13.828125 33.16015625 C-12.92320312 33.12148437 -12.92320312 33.12148437 -12 33.08203125 C-6.78358603 32.75667635 -6.78358603 32.75667635 -2.328125 30.22265625 C0.23695508 26.69567114 0.4333849 24.51865464 0.171875 20.16015625 C-1.03519379 16.8175042 -1.74869349 16.21311059 -4.828125 14.16015625 C-9.69394434 13.61078955 -11.7257694 13.42525252 -15.828125 16.16015625 C-18.58589563 20.29681219 -18.45200698 22.24708563 -17.828125 27.16015625 C-16.48981542 29.61973365 -16.48981542 29.61973365 -14.828125 31.16015625 C-15.158125 31.82015625 -15.488125 32.48015625 -15.828125 33.16015625 C-18.98408385 31.37177957 -19.79916356 30.23462852 -21.140625 26.78515625 C-22.07096883 21.87970696 -21.7972797 19.64850096 -19.078125 15.47265625 C-15.54165136 11.83794723 -13.05659071 11.20043381 -8.015625 11.03515625 C-6.4378125 11.09703125 -6.4378125 11.09703125 -4.828125 11.16015625 C-5.09488704 9.17523983 -5.09488704 9.17523983 -5.828125 7.16015625 C-6.818125 6.83015625 -7.808125 6.50015625 -8.828125 6.16015625 C-8.828125 6.82015625 -8.828125 7.48015625 -8.828125 8.16015625 C-7.838125 8.82015625 -6.848125 9.48015625 -5.828125 10.16015625 C-7.57719159 10.35617233 -9.32744346 10.54163028 -11.078125 10.72265625 C-12.05265625 10.82707031 -13.0271875 10.93148437 -14.03125 11.0390625 C-16.5912602 11.14990093 -18.40960659 10.93753717 -20.828125 10.16015625 C-19.70360773 7.18821775 -18.60518709 4.82574938 -16.828125 2.16015625 C-17.818125 1.83015625 -18.808125 1.50015625 -19.828125 1.16015625 C-13.98352396 -2.35507481 -6.36969201 -1.89155218 0 0 Z " fill="#16B5C4" transform="translate(280.828125,174.83984375)"/>
<path d="M0 0 C5.52362906 3.37241978 9.31629935 8.26716522 11.296875 14.40234375 C12.42422869 22.79222855 11.08375507 29.42240467 6.296875 36.40234375 C5.80744415 36.87596344 5.31801331 37.34958313 4.81375122 37.83755493 C2.40329766 40.23080673 0.51395064 42.15668225 -0.08181763 45.57542419 C-0.03166674 48.05982829 0.1937672 50.46970549 0.484375 52.9375 C0.62582052 54.80789688 0.75974847 56.6788743 0.88696289 58.55029297 C0.95771027 59.5180365 1.02845764 60.48578003 1.10134888 61.48284912 C2.73535519 86.40329435 2.73535519 86.40329435 -4.54296875 94.984375 C-8.96771057 99.7875164 -14.14476194 103.78748293 -19.57006836 107.39990234 C-22.28268646 109.94641644 -22.44840355 111.76282181 -22.703125 115.40234375 C-24.703125 112.40234375 -24.703125 112.40234375 -24.62133789 110.48022461 C-23.3351967 107.569736 -21.45545934 106.18260735 -19.01171875 104.15625 C-7.46601213 94.8338863 -7.46601213 94.8338863 -1.27734375 82.05078125 C-1.11065807 77.66125523 -1.61868477 73.40126187 -2.31738281 69.07226562 C-2.85856345 65.32647355 -2.97401803 61.59753062 -3.10693359 57.81860352 C-3.24123403 54.00876596 -3.47424097 50.20754067 -3.703125 46.40234375 C-5.188125 46.89734375 -5.188125 46.89734375 -6.703125 47.40234375 C-6.6825 46.59796875 -6.661875 45.79359375 -6.640625 44.96484375 C-6.40678879 42.4687949 -6.40678879 42.4687949 -7.703125 41.40234375 C-8.033125 43.38234375 -8.363125 45.36234375 -8.703125 47.40234375 C-9.363125 47.40234375 -10.023125 47.40234375 -10.703125 47.40234375 C-10.703125 49.05234375 -10.703125 50.70234375 -10.703125 52.40234375 C-11.033125 52.40234375 -11.363125 52.40234375 -11.703125 52.40234375 C-12.693125 48.93734375 -12.693125 48.93734375 -13.703125 45.40234375 C-13.67694092 46.46670654 -13.65075684 47.53106934 -13.6237793 48.62768555 C-13.53307724 52.58775702 -13.47580411 56.54773726 -13.4284668 60.50854492 C-13.40336786 62.2206162 -13.36928071 63.93258079 -13.32592773 65.64428711 C-13.26506761 68.1094802 -13.23687068 70.5732536 -13.21484375 73.0390625 C-13.18903732 73.80071213 -13.1632309 74.56236176 -13.13664246 75.34709167 C-13.13453851 79.36032963 -13.48164509 81.13345615 -16.06640625 84.27148438 C-17.37158203 85.32625977 -17.37158203 85.32625977 -18.703125 86.40234375 C-20.02763672 87.61857422 -20.02763672 87.61857422 -21.37890625 88.859375 C-22.24902344 89.63667969 -23.11914062 90.41398437 -24.015625 91.21484375 C-25.34013672 92.40013672 -25.34013672 92.40013672 -26.69140625 93.609375 C-27.35527344 94.20105469 -28.01914063 94.79273438 -28.703125 95.40234375 C-31.04092024 94.44597297 -32.41941869 93.87024743 -33.75 91.67578125 C-34.40104167 89.91796875 -35.05208333 88.16015625 -35.703125 86.40234375 C-34.713125 86.73234375 -33.723125 87.06234375 -32.703125 87.40234375 C-32.373125 89.05234375 -32.043125 90.70234375 -31.703125 92.40234375 C-27.61431111 91.85907477 -25.48399579 89.70521561 -22.515625 86.96484375 C-21.63519531 86.16175781 -20.75476563 85.35867187 -19.84765625 84.53125 C-17.04606013 81.75006623 -16.72504199 81.04873013 -16.58959961 77.05419922 C-16.58975812 75.62596678 -16.59541765 74.19772833 -16.60546875 72.76953125 C-16.6068837 72.01769562 -16.60829865 71.26585999 -16.60975647 70.49124146 C-16.61536035 68.08656865 -16.62791343 65.68198848 -16.640625 63.27734375 C-16.6456395 61.64843884 -16.6502025 60.01953248 -16.65429688 58.390625 C-16.66533103 54.39449548 -16.68259821 50.39843533 -16.703125 46.40234375 C-17.45658203 46.00909912 -18.21003906 45.61585449 -18.98632812 45.21069336 C-19.97568359 44.68483643 -20.96503906 44.15897949 -21.984375 43.6171875 C-22.96470703 43.10019287 -23.94503906 42.58319824 -24.95507812 42.05053711 C-31.00484125 38.42207666 -34.68267521 33.13717638 -36.703125 26.40234375 C-37.58968874 18.07849529 -36.28628288 12.31621933 -31.640625 5.27734375 C-23.25708903 -4.032135 -10.96630658 -4.90689833 0 0 Z M-30.0390625 6.52734375 C-34.5361144 11.59444448 -35.33049862 17.00572402 -35.10546875 23.55859375 C-34.27025205 29.46187292 -32.06910647 34.30166535 -27.578125 38.2890625 C-23.52848616 41.11423284 -19.51674302 43.16808272 -14.703125 44.40234375 C-15.54501112 42.45504838 -15.54501112 42.45504838 -16.703125 41.40234375 C-14.723125 41.73234375 -12.743125 42.06234375 -10.703125 42.40234375 C-11.363125 41.08234375 -12.023125 39.76234375 -12.703125 38.40234375 C-11.218125 37.90734375 -11.218125 37.90734375 -9.703125 37.40234375 C-9.703125 36.41234375 -9.703125 35.42234375 -9.703125 34.40234375 C-8.218125 34.89734375 -8.218125 34.89734375 -6.703125 35.40234375 C-6.043125 34.08234375 -5.383125 32.76234375 -4.703125 31.40234375 C-5.34378906 31.5209375 -5.98445313 31.63953125 -6.64453125 31.76171875 C-11.12112814 32.42887179 -14.62260015 32.93195767 -18.703125 30.71484375 C-22.61187569 27.70184843 -23.45231863 26.32519262 -24.078125 21.52734375 C-23.53092423 16.96733732 -21.56819039 13.86775227 -17.953125 11.02734375 C-13.76398593 9.86369401 -9.56033219 9.85020107 -5.390625 11.08984375 C-2.98763254 12.95883788 -1.94268755 14.61332802 -0.703125 17.40234375 C-0.32354398 21.42590257 -0.7305558 24.78855805 -1.765625 28.65234375 C-3.03467757 32.30247852 -3.03467757 32.30247852 -1.703125 35.40234375 C-0.713125 35.40234375 0.276875 35.40234375 1.296875 35.40234375 C1.626875 36.39234375 1.956875 37.38234375 2.296875 38.40234375 C8.28725495 31.37913968 9.91761498 25.9778915 9.71484375 16.82421875 C8.96938865 10.72124053 6.20817547 7.42286139 2.109375 3.08984375 C-9.19573397 -3.69322163 -20.55348109 -2.54253489 -30.0390625 6.52734375 Z M-20.703125 14.40234375 C-22.95810353 17.14753501 -22.703125 18.69705062 -22.703125 22.33984375 C-22.14319201 25.8231478 -21.56668731 26.55827254 -19.078125 29.40234375 C-15.12938153 31.74233988 -13.21443187 32.1405576 -8.703125 31.40234375 C-5.66751804 29.58097957 -4.09712409 28.08288764 -2.328125 25.02734375 C-1.53014497 21.67582762 -1.67284994 19.69922393 -2.703125 16.40234375 C-5.3052142 12.95840216 -7.00412934 11.61839695 -11.140625 10.33984375 C-15.58382434 10.41779462 -17.36457971 11.52964199 -20.703125 14.40234375 Z " fill="#26BBC9" transform="translate(207.703125,151.59765625)"/>
<path d="M0 0 C0.66 0.33 1.32 0.66 2 1 C1.67 2.65 1.34 4.3 1 6 C2.32 5.34 3.64 4.68 5 4 C5.47102867 12.30188031 5.47102867 12.30188031 5.59399414 16.06079102 C5.75298774 20.88359696 6.03644989 25.53562441 6.83984375 30.296875 C7.79576494 37.37511611 8.14959651 42.96101717 3.86865234 49.01318359 C-1.3951089 55.26630627 -7.53086079 60.69910094 -13.75341797 65.97314453 C-16.16644447 67.98294003 -16.16644447 67.98294003 -18 71 C-18 67.7 -18 64.4 -18 61 C-16.68 61.66 -15.36 62.32 -14 63 C-13.67 60.69 -13.34 58.38 -13 56 C-15.28705831 54.85647084 -16.59264762 54.89665561 -19.125 54.9375 C-21.043125 54.9684375 -21.043125 54.9684375 -23 55 C-21.37660195 53.29115995 -19.70680947 51.62553283 -18 50 C-17.34 50 -16.68 50 -16 50 C-15.67 49.01 -15.34 48.02 -15 47 C-13.40625 45.68359375 -13.40625 45.68359375 -11.5 44.4375 C-8.74463406 42.68380605 -8.74463406 42.68380605 -7 40 C-6.91316555 37.22839374 -6.8844421 34.48225235 -6.90234375 31.7109375 C-6.9037587 30.89251373 -6.90517365 30.07408997 -6.90663147 29.23086548 C-6.9122371 26.61220675 -6.92479052 23.99363296 -6.9375 21.375 C-6.94251428 19.60156373 -6.94707731 17.82812613 -6.95117188 16.0546875 C-6.96220836 11.70309218 -6.97947675 7.3515605 -7 3 C-5.68 3.99 -4.36 4.98 -3 6 C-2.67 5.34 -2.34 4.68 -2 4 C-1.34 4 -0.68 4 0 4 C0 2.68 0 1.36 0 0 Z " fill="#15B3C3" transform="translate(200,193)"/>
<path d="M0 0 C0.495 1.485 0.495 1.485 1 3 C0.29423828 3.52787109 0.29423828 3.52787109 -0.42578125 4.06640625 C-4.86244763 7.58450816 -7.41143647 10.3933052 -9 16 C-9.7540072 22.58428824 -8.73979619 26.94961674 -6 33 C-5.42274966 36.46902222 -5.23809542 38.87093451 -7.25939941 41.86630249 C-9.11878728 43.93029751 -11.06308809 45.84932197 -13.078125 47.76171875 C-13.80110779 48.47479691 -14.52409058 49.18787506 -15.26898193 49.92256165 C-17.58005117 52.19452589 -19.91422511 54.44097047 -22.25 56.6875 C-23.80758522 58.2099578 -25.36359404 59.73403016 -26.91796875 61.25976562 C-29.77453566 64.05921272 -32.63966486 66.84917822 -35.51660156 69.62768555 C-36.12669067 70.2221347 -36.73677979 70.81658386 -37.36535645 71.42904663 C-38.68639586 72.69861473 -40.04445621 73.92959139 -41.41308594 75.14770508 C-44.51903471 78.77306406 -44.14593196 83.58498623 -44.24951172 88.17285156 C-44.27979462 89.39893127 -44.31007751 90.62501099 -44.34127808 91.88824463 C-44.35551693 92.53944527 -44.36975578 93.1906459 -44.38442612 93.8615799 C-44.43045696 95.92511955 -44.48339266 97.98837685 -44.5383606 100.05169678 C-44.69406392 105.9170403 -44.84314238 111.78248572 -44.97412109 117.6484375 C-46.02823542 164.24479877 -46.02823542 164.24479877 -60 183 C-60.66 183.99 -61.32 184.98 -62 186 C-52.35162212 181.59152273 -45.44637683 175.34339989 -38 168 C-36.99222727 167.01949037 -35.98441597 166.03902039 -34.9765625 165.05859375 C-31.06879134 161.22677217 -27.23702922 157.35664778 -23.6875 153.1875 C-18.68358127 147.31915735 -13.07627266 141.99906615 -7.59667969 136.58056641 C-3.19809699 132.29144185 -3.19809699 132.29144185 0.859375 127.69140625 C3.99317393 125.2152476 6.32708283 125.71117786 10.25 125.9375 C17.86208202 126.18913151 23.13810149 125.37569012 29.3125 120.625 C31.79603693 118.19921975 33.42066862 116.07092212 35 113 C35.33 113.99 35.66 114.98 36 116 C32.91874924 121.24674517 28.33324459 125.15641084 22.72265625 127.41796875 C19.21620207 128.16755508 16.01548878 127.97239026 12.4375 127.8125 C5.94901686 127.63779801 5.94901686 127.63779801 0.625 130.9375 C-0.61056265 132.26686893 -1.81784126 133.62292429 -3 135 C-4.5146633 136.48548415 -6.03574317 137.96444819 -7.5625 139.4375 C-10.15021861 142.01543517 -12.58699486 144.67272597 -14.9609375 147.4453125 C-19.84901313 153.05982593 -25.05950866 158.35603108 -30.29467773 163.64477539 C-31.46616456 164.83276431 -32.63227149 166.02608432 -33.79272461 167.22485352 C-45.05308116 178.85262133 -57.95849419 188.64568588 -73 195 C-73.99 194.67 -74.98 194.34 -76 194 C-75.38253906 193.56171875 -74.76507813 193.1234375 -74.12890625 192.671875 C-60.1395089 182.19579662 -52.8225967 169.02547182 -50 152 C-48.86197006 142.41525894 -48.75165105 132.77706421 -48.55526733 123.13839722 C-48.46202289 118.68701776 -48.34897646 114.23613002 -48.23828125 109.78515625 C-48.12728723 105.29290496 -48.01662744 100.80076466 -47.92333984 96.30810547 C-47.86271021 93.51696157 -47.78035992 90.72771938 -47.6875 87.9375 C-47.6771875 87.19757813 -47.666875 86.45765625 -47.65625 85.6953125 C-47.28370444 76.41715399 -41.48645175 71.11990806 -35.13671875 65.125 C-33.5950059 63.63092745 -32.05401114 62.13611363 -30.51367188 60.640625 C-28.09430954 58.30825817 -25.66928456 55.98272058 -23.23120117 53.66992188 C-20.86930583 51.42271392 -18.53309274 49.15124689 -16.19921875 46.875 C-15.46289719 46.18937988 -14.72657562 45.50375977 -13.96794128 44.79736328 C-12.07557708 42.93414749 -10.43007615 41.23798442 -9 39 C-8.99833341 34.63714278 -10.16533189 31.23054379 -11.6875 27.1875 C-13.78720834 20.42520402 -12.52606549 14.93908909 -9.3125 8.75 C-6.50690982 5.41362248 -3.40968042 2.70092663 0 0 Z " fill="#3FCDD2" transform="translate(259,176)"/>
<path d="M0 0 C0.33 0 0.66 0 1 0 C1.03440186 0.67353516 1.06880371 1.34707031 1.10424805 2.04101562 C3.17448391 39.70967931 18.58110981 64.02598343 43.63671875 91.359375 C46.78419017 94.87621909 49.75819977 98.51677964 52.71875 102.19140625 C55.10177494 105.12530168 57.54957819 107.99726698 60 110.875 C70.60327016 123.61205517 79.449378 137.47348169 85.875 152.75 C86.16133301 153.42256836 86.44766602 154.09513672 86.74267578 154.78808594 C90.31962054 163.63688373 91.37081443 172.37974474 91.3125 181.875 C91.30686035 182.84099121 91.3012207 183.80698242 91.29541016 184.80224609 C91.01600017 201.23763966 85.18640789 214.89033771 74 227 C71.73900078 229.1370503 69.44257969 231.06629108 67 233 C71.75444697 232.36299642 75.58645481 230.45517212 79.8125 228.3125 C80.52083984 227.95671875 81.22917969 227.6009375 81.95898438 227.234375 C87.07084883 224.61025323 91.57452777 221.68789352 96 218 C93.67744157 224.28373171 86.59803774 227.80472554 81 231 C73.77984479 234.32095884 66.75166011 237.167785 58.75 237.0625 C57.85796875 237.05347656 56.9659375 237.04445313 56.046875 237.03515625 C55.03367187 237.01775391 55.03367187 237.01775391 54 237 C56.69938626 235.20040916 59.36517289 233.78311717 62.25 232.3125 C74.9667025 225.32750441 82.11117248 213.3590423 86.30859375 199.65625 C92.30062385 176.63602135 85.58794905 155.13590894 74.34765625 135.046875 C66.16498536 121.68251276 56.0284505 109.58559849 45.66308594 97.88525391 C42.25293207 94.01954514 38.89633257 90.1069739 35.53027344 86.20288086 C32.68247501 82.90897368 29.78257746 79.68478185 26.8125 76.5 C10.47158067 58.09496455 -1.609047 33.27153046 -0.89453125 8.31640625 C-0.66794091 5.52835986 -0.38817756 2.76969934 0 0 Z " fill="#41D3DB" transform="translate(75,139)"/>
<path d="M0 0 C1.76171875 1.19140625 1.76171875 1.19140625 3.3125 2.4375 C3.89644531 2.90027344 4.48039062 3.36304687 5.08203125 3.83984375 C6.3125 5.4375 6.3125 5.4375 6.2890625 7.203125 C4.85256194 10.48983829 2.75629791 13.2787845 0.6875 16.1875 C-10.15451158 32.002412 -16.78812491 49.88096172 -14.32421875 69.30078125 C-9.51427078 94.52846752 5.28914396 119.14083496 17.03515625 141.75390625 C18.3125 144.4375 18.3125 144.4375 18.3125 146.4375 C17.6525 146.4375 16.9925 146.4375 16.3125 146.4375 C-22.86805014 69.0867864 -22.86805014 69.0867864 -14.87548828 42.64941406 C-10.61376316 29.73391918 -4.64493105 17.76653768 4.3125 7.4375 C-3.25606618 -1.07713696 -13.41809209 -3.7265216 -24.546875 -4.8515625 C-37.71759232 -5.27028473 -49.93262743 -0.84181007 -59.9375 7.625 C-67.04629368 14.34381283 -71.01417989 22.49188514 -74.6875 31.4375 C-75.3475 31.1075 -76.0075 30.7775 -76.6875 30.4375 C-72.05503614 17.47550977 -64.24005616 5.73249939 -51.91796875 -1.09765625 C-35.45582223 -8.82202869 -16.02514802 -9.59763856 0 0 Z " fill="#3EB6C3" transform="translate(154.6875,90.5625)"/>
<path d="M0 0 C0.495 0.99 0.495 0.99 1 2 C0.43192627 2.23074219 -0.13614746 2.46148438 -0.72143555 2.69921875 C-32.86380406 15.85117546 -57.90637306 35.40953755 -71.796875 68.08984375 C-77.20683486 81.65027149 -79.5301699 94.75908391 -79.375 109.375 C-79.36951645 110.38981949 -79.36951645 110.38981949 -79.36392212 111.42514038 C-79.29957243 121.58864194 -78.68259676 131.16797096 -76 141 C-75.69255859 142.30710938 -75.69255859 142.30710938 -75.37890625 143.640625 C-71.87426474 157.13676001 -64.28929637 169.27496901 -57 181 C-55.99673779 182.66470499 -54.99536395 184.33056046 -54 186 C-58.45836533 184.51387822 -59.79090425 181.29513561 -62.25 177.4375 C-62.73799072 176.6753418 -63.22598145 175.91318359 -63.72875977 175.12792969 C-80.46803299 148.33403438 -86.54944475 115.66110419 -79.69384766 84.74169922 C-79.15607792 82.48655058 -78.58775709 80.24257634 -78 78 C-77.72285156 76.90816406 -77.44570312 75.81632812 -77.16015625 74.69140625 C-72.744982 59.69609096 -64.06163219 46.7497257 -54 35 C-52.82050781 33.59234375 -52.82050781 33.59234375 -51.6171875 32.15625 C-38.55395129 17.04477118 -19.21800355 5.49085816 0 0 Z " fill="#43D7DF" transform="translate(115,23)"/>
<path d="M0 0 C5.52362906 3.37241978 9.31629935 8.26716522 11.296875 14.40234375 C12.43408833 22.86560506 11.01323713 29.32170706 6.296875 36.40234375 C4.39861989 38.87852197 2.43198036 41.11827755 0.296875 43.40234375 C-0.033125 42.41234375 -0.363125 41.42234375 -0.703125 40.40234375 C0.40625 38.7890625 0.40625 38.7890625 2.046875 37.08984375 C6.82123733 32.11848104 8.73537801 27.4303805 8.796875 20.52734375 C8.64489734 14.26322092 7.80273613 9.8968551 3.296875 5.40234375 C-2.01639364 1.21230767 -8.39634037 -0.92847645 -15.140625 -0.53515625 C-21.65245675 0.39828038 -27.64364681 4.24992913 -31.703125 9.40234375 C-34.30736619 14.74103819 -34.41075448 20.5849712 -33.703125 26.40234375 C-32.62242099 29.31084716 -31.27329375 31.7036162 -29.703125 34.40234375 C-29.703125 35.06234375 -29.703125 35.72234375 -29.703125 36.40234375 C-29.16042969 36.67046875 -28.61773437 36.93859375 -28.05859375 37.21484375 C-25.35819168 38.57624048 -22.68324614 39.97771297 -20.015625 41.40234375 C-19.04238281 41.91796875 -18.06914062 42.43359375 -17.06640625 42.96484375 C-14.703125 44.40234375 -14.703125 44.40234375 -13.703125 46.40234375 C-13.41957867 51.34286939 -13.38941253 56.28428376 -13.35302734 61.23217773 C-13.33647822 62.88206091 -13.30920144 64.5318727 -13.27099609 66.18139648 C-13.21611351 68.56401633 -13.1943379 70.94495747 -13.1796875 73.328125 C-13.15701813 74.06162674 -13.13434875 74.79512848 -13.11099243 75.55085754 C-13.12719059 79.49459289 -13.51828774 81.1795623 -16.06860352 84.25341797 C-16.93799561 84.96256348 -17.8073877 85.67170898 -18.703125 86.40234375 C-20.02763672 87.61857422 -20.02763672 87.61857422 -21.37890625 88.859375 C-22.24902344 89.63667969 -23.11914062 90.41398437 -24.015625 91.21484375 C-25.34013672 92.40013672 -25.34013672 92.40013672 -26.69140625 93.609375 C-27.35527344 94.20105469 -28.01914063 94.79273438 -28.703125 95.40234375 C-31.04092024 94.44597297 -32.41941869 93.87024743 -33.75 91.67578125 C-34.40104167 89.91796875 -35.05208333 88.16015625 -35.703125 86.40234375 C-34.713125 86.73234375 -33.723125 87.06234375 -32.703125 87.40234375 C-32.373125 89.05234375 -32.043125 90.70234375 -31.703125 92.40234375 C-27.61431111 91.85907477 -25.48399579 89.70521561 -22.515625 86.96484375 C-21.63519531 86.16175781 -20.75476563 85.35867187 -19.84765625 84.53125 C-17.04606013 81.75006623 -16.72504199 81.04873013 -16.58959961 77.05419922 C-16.58975812 75.62596678 -16.59541765 74.19772833 -16.60546875 72.76953125 C-16.6068837 72.01769562 -16.60829865 71.26585999 -16.60975647 70.49124146 C-16.61536035 68.08656865 -16.62791343 65.68198848 -16.640625 63.27734375 C-16.6456395 61.64843884 -16.6502025 60.01953248 -16.65429688 58.390625 C-16.66533103 54.39449548 -16.68259821 50.39843533 -16.703125 46.40234375 C-17.45658203 46.00909912 -18.21003906 45.61585449 -18.98632812 45.21069336 C-19.97568359 44.68483643 -20.96503906 44.15897949 -21.984375 43.6171875 C-22.96470703 43.10019287 -23.94503906 42.58319824 -24.95507812 42.05053711 C-31.00484125 38.42207666 -34.68267521 33.13717638 -36.703125 26.40234375 C-37.58968874 18.07849529 -36.28628288 12.31621933 -31.640625 5.27734375 C-23.25708903 -4.032135 -10.96630658 -4.90689833 0 0 Z " fill="#42D4DD" transform="translate(207.703125,151.59765625)"/>
<path d="M0 0 C5.98007212 2.72405126 10.57881809 6.63322161 14.171875 12.16015625 C14.85546875 14.40625 14.85546875 14.40625 15.171875 16.16015625 C14.181875 16.65515625 14.181875 16.65515625 13.171875 17.16015625 C12.82576172 16.36351562 12.82576172 16.36351562 12.47265625 15.55078125 C9.25766312 8.58708071 5.32243586 5.17928195 -1.828125 2.16015625 C-2.818125 2.65515625 -2.818125 2.65515625 -3.828125 3.16015625 C-3.18875 3.26328125 -2.549375 3.36640625 -1.890625 3.47265625 C-1.21 3.69953125 -0.529375 3.92640625 0.171875 4.16015625 C0.501875 5.15015625 0.831875 6.14015625 1.171875 7.16015625 C-0.148125 7.16015625 -1.468125 7.16015625 -2.828125 7.16015625 C-1.37978669 10.60858079 0.02412065 13.89748185 1.859375 17.16015625 C3.46924413 20.83985713 3.66976854 23.1770079 3.171875 27.16015625 C1.44370067 30.55249845 0.14466782 32.5817389 -3.140625 34.53515625 C-6.43055851 35.30025707 -9.4624623 35.29214302 -12.828125 35.16015625 C-13.158125 34.50015625 -13.488125 33.84015625 -13.828125 33.16015625 C-13.22484375 33.134375 -12.6215625 33.10859375 -12 33.08203125 C-6.78358603 32.75667635 -6.78358603 32.75667635 -2.328125 30.22265625 C0.23695508 26.69567114 0.4333849 24.51865464 0.171875 20.16015625 C-1.03519379 16.8175042 -1.74869349 16.21311059 -4.828125 14.16015625 C-9.69394434 13.61078955 -11.7257694 13.42525252 -15.828125 16.16015625 C-18.58589563 20.29681219 -18.45200698 22.24708563 -17.828125 27.16015625 C-16.48981542 29.61973365 -16.48981542 29.61973365 -14.828125 31.16015625 C-15.158125 31.82015625 -15.488125 32.48015625 -15.828125 33.16015625 C-18.98408385 31.37177957 -19.79916356 30.23462852 -21.140625 26.78515625 C-22.07096883 21.87970696 -21.7972797 19.64850096 -19.078125 15.47265625 C-15.54165136 11.83794723 -13.05659071 11.20043381 -8.015625 11.03515625 C-6.96375 11.07640625 -5.911875 11.11765625 -4.828125 11.16015625 C-5.09488704 9.17523983 -5.09488704 9.17523983 -5.828125 7.16015625 C-6.818125 6.83015625 -7.808125 6.50015625 -8.828125 6.16015625 C-8.828125 6.82015625 -8.828125 7.48015625 -8.828125 8.16015625 C-7.838125 8.82015625 -6.848125 9.48015625 -5.828125 10.16015625 C-7.57719159 10.35617233 -9.32744346 10.54163028 -11.078125 10.72265625 C-12.05265625 10.82707031 -13.0271875 10.93148437 -14.03125 11.0390625 C-16.5912602 11.14990093 -18.40960659 10.93753717 -20.828125 10.16015625 C-19.70360773 7.18821775 -18.60518709 4.82574938 -16.828125 2.16015625 C-17.818125 1.83015625 -18.808125 1.50015625 -19.828125 1.16015625 C-13.98352396 -2.35507481 -6.36969201 -1.89155218 0 0 Z " fill="#24BFCE" transform="translate(280.828125,174.83984375)"/>
<path d="M0 0 C0.495 1.485 0.495 1.485 1 3 C0.52949219 3.35191406 0.05898438 3.70382813 -0.42578125 4.06640625 C-4.86244763 7.58450816 -7.41143647 10.3933052 -9 16 C-9.7540072 22.58428824 -8.73979619 26.94961674 -6 33 C-5.42274966 36.46902222 -5.23809542 38.87093451 -7.25939941 41.86630249 C-9.11878728 43.93029751 -11.06308809 45.84932197 -13.078125 47.76171875 C-13.80110779 48.47479691 -14.52409058 49.18787506 -15.26898193 49.92256165 C-17.58005117 52.19452589 -19.91422511 54.44097047 -22.25 56.6875 C-23.80758522 58.2099578 -25.36359404 59.73403016 -26.91796875 61.25976562 C-29.77453566 64.05921272 -32.63966486 66.84917822 -35.51660156 69.62768555 C-36.12669067 70.2221347 -36.73677979 70.81658386 -37.36535645 71.42904663 C-38.68639586 72.69861473 -40.04445621 73.92959139 -41.41308594 75.14770508 C-44.54446405 78.80274596 -44.15445333 83.70746921 -44.28125 88.33154297 C-44.31798828 89.5898996 -44.35472656 90.84825623 -44.39257812 92.14474487 C-44.41880249 93.14587626 -44.41880249 93.14587626 -44.44555664 94.16723251 C-44.50072966 96.26999656 -44.56121684 98.37254999 -44.62304688 100.47512817 C-44.75343248 104.94162402 -44.87711154 109.40829248 -45 113.875 C-45.14254013 119.04709072 -45.28788033 124.21907613 -45.43969727 129.39090347 C-45.49887485 131.45298083 -45.55326073 133.51514776 -45.60742188 135.57736206 C-45.64416016 136.84202301 -45.68089844 138.10668396 -45.71875 139.40966797 C-45.74904297 140.51599579 -45.77933594 141.62232361 -45.81054688 142.76217651 C-46.01268127 146.21672764 -46.46608933 149.582303 -47 153 C-47.33 153 -47.66 153 -48 153 C-48.02574016 145.81820457 -48.043027 138.63642139 -48.05493164 131.45458984 C-48.05990407 129.02066605 -48.06668437 126.58674516 -48.07543945 124.15283203 C-48.11682292 112.33663642 -48.14297906 100.51406429 -47.74609375 88.703125 C-47.73224136 87.91476257 -47.71838898 87.12640015 -47.70411682 86.31414795 C-47.28422588 76.64998098 -41.83567594 71.4496175 -35.13671875 65.125 C-33.5950059 63.63092745 -32.05401114 62.13611363 -30.51367188 60.640625 C-28.09430954 58.30825817 -25.66928456 55.98272058 -23.23120117 53.66992188 C-20.86930583 51.42271392 -18.53309274 49.15124689 -16.19921875 46.875 C-15.46289719 46.18937988 -14.72657562 45.50375977 -13.96794128 44.79736328 C-12.07557708 42.93414749 -10.43007615 41.23798442 -9 39 C-8.99833341 34.63714278 -10.16533189 31.23054379 -11.6875 27.1875 C-13.78720834 20.42520402 -12.52606549 14.93908909 -9.3125 8.75 C-6.50690982 5.41362248 -3.40968042 2.70092663 0 0 Z " fill="#3CCFD9" transform="translate(259,176)"/>
<path d="M0 0 C0.66 0 1.32 0 2 0 C2.38929687 0.84820312 2.77859375 1.69640625 3.1796875 2.5703125 C12.85297396 22.85300993 27.89087021 38.87384048 43.18701172 55.078125 C59.30263813 72.16164387 59.30263813 72.16164387 64.59765625 78.359375 C65.56497804 79.49106066 66.55351086 80.60483894 67.55859375 81.703125 C69 83.3125 69 83.3125 71 86 C70.505 87.485 70.505 87.485 70 89 C59.33559978 80.98503671 49.56305828 72.29364694 40 63 C39.16549316 62.19272461 38.33098633 61.38544922 37.47119141 60.55371094 C34.84507107 58.00484373 32.23278979 55.44260927 29.625 52.875 C28.79782471 52.06933594 27.97064941 51.26367188 27.1184082 50.43359375 C26.34972412 49.66917969 25.58104004 48.90476563 24.7890625 48.1171875 C24.10537598 47.44284668 23.42168945 46.76850586 22.71728516 46.07373047 C20.85089402 43.8199451 19.93806698 41.75658453 19 39 C23.84652727 43.0339537 28.39074436 47.26485743 32.81640625 51.75390625 C33.43595688 52.3772435 34.05550751 53.00058075 34.6938324 53.64280701 C36.65252949 55.61360082 38.60792538 57.58761811 40.5625 59.5625 C43.1441763 62.17092612 45.7292517 64.77591486 48.31640625 67.37890625 C48.89781876 67.9686171 49.47923126 68.55832794 50.07826233 69.16590881 C53.56259684 72.6708862 57.15500188 75.89368356 61 79 C57.20393413 73.53664245 52.98998198 68.87046059 48.234375 64.2265625 C44.3901581 60.39578692 40.91337965 56.26126686 37.41015625 52.12109375 C36.65025391 51.22583984 36.65025391 51.22583984 35.875 50.3125 C35.43929687 49.79300781 35.00359375 49.27351563 34.5546875 48.73828125 C32.46145019 46.3978526 30.22673532 44.21340158 28 42 C0 13.47440273 0 13.47440273 0 0 Z " fill="#42CFD6" transform="translate(64,195)"/>
<path d="M0 0 C4.28757384 4.16679711 7.99540129 8.61395373 11.71875 13.28125 C13.99367986 16.08309332 13.99367986 16.08309332 16.78125 18.71875 C19 21 19 21 19 23 C19.99 23.33 20.98 23.66 22 24 C23.55834961 25.56420898 23.55834961 25.56420898 25.21484375 27.55859375 C29.46631326 32.56945366 33.96264424 37.31982409 38.48242188 42.08789062 C42.45023961 46.29271498 46.27103692 50.58155222 50 55 C49.505 55.99 49.505 55.99 49 57 C41.60903583 50.29202922 34.3891233 43.43336409 27.35546875 36.3515625 C26.77732422 35.76988312 26.19917969 35.18820374 25.60351562 34.58889771 C22.67387382 31.63809941 19.75205946 28.67993595 16.83837891 25.71337891 C15.74263246 24.60567611 14.64677147 23.49808661 13.55078125 22.390625 C13.05023727 21.87658112 12.5496933 21.36253723 12.03398132 20.83291626 C9.50236372 18.28340365 7.23921902 16.52051605 4 15 C3.731875 14.278125 3.46375 13.55625 3.1875 12.8125 C1.4286491 8.6468005 -1.72327919 6.0401661 -5 3 C-4.01 3 -3.02 3 -2 3 C-1.34 2.01 -0.68 1.02 0 0 Z " fill="#0FB0BF" transform="translate(76,218)"/>
<path d="M0 0 C3.49055875 3.2302459 6.85826543 6.71653087 9 11 C9.07181821 13.71760108 9.09299506 16.40859388 9.0625 19.125 C9.05798828 19.87910156 9.05347656 20.63320313 9.04882812 21.41015625 C9.03703499 23.27347127 9.01909942 25.13674555 9 27 C8.67 27 8.34 27 8 27 C7.97421875 26.154375 7.9484375 25.30875 7.921875 24.4375 C7.50064805 16.0129611 6.75267626 9.65645379 0.5625 3.625 C-6.0591096 -0.5740695 -12.31457883 -0.75274379 -20 0 C-25.41948183 1.59904966 -29.39593086 4.65391662 -33 9 C-34.94248185 12.91892318 -35.27033421 16.14847903 -35.25 20.5 C-35.25515625 21.6034375 -35.2603125 22.706875 -35.265625 23.84375 C-35.1736189 26.96362016 -35.1736189 26.96362016 -33.921875 29.46875 C-32.61535673 33.05613915 -33.12044464 35.29723772 -34 39 C-35.67953502 41.22661184 -37.1870677 42.9633451 -39.171875 44.86328125 C-39.69130676 45.38133835 -40.21073853 45.89939545 -40.74591064 46.43315125 C-41.84176528 47.51998359 -42.94486222 48.59955689 -44.0546875 49.67211914 C-45.74679907 51.30940279 -47.4135934 52.96949708 -49.078125 54.63476562 C-50.14963683 55.6915305 -51.22250957 56.74691763 -52.296875 57.80078125 C-52.79290222 58.29347 -53.28892944 58.78615875 -53.79998779 59.29377747 C-56.67590553 62.05427345 -59.1884031 63.79965086 -63 65 C-63 64.34 -63 63.68 -63 63 C-61.58178711 61.59423828 -61.58178711 61.59423828 -59.58984375 59.9453125 C-54.70718134 55.78907661 -50.12321999 51.37969149 -45.5625 46.875 C-44.74845703 46.08996094 -43.93441406 45.30492187 -43.09570312 44.49609375 C-42.32291016 43.73167969 -41.55011719 42.96726562 -40.75390625 42.1796875 C-40.05595947 41.49632324 -39.3580127 40.81295898 -38.63891602 40.10888672 C-36.75432517 37.68387619 -36.29060123 36.03499575 -36 33 C-36.5550116 30.64036381 -36.5550116 30.64036381 -37.5 28.3125 C-39.62388751 21.73529995 -39.5468868 15.49765582 -36.375 9.25 C-28.53940221 -2.7006959 -12.71494216 -7.33729637 0 0 Z " fill="#3DD4DC" transform="translate(288,258)"/>
<path d="M0 0 C0.66 0 1.32 0 2 0 C9.46753526 26.15171064 11.93262082 48.66453293 -0.7734375 73.4609375 C-3.73314783 78.6953597 -6.79758974 83.67752087 -11 88 C-11.66 88 -12.32 88 -13 88 C-11.53743341 84.84431445 -9.74419361 82.1750219 -7.6875 79.375 C-0.92098956 70.0165923 -0.92098956 70.0165923 1 59 C2.485 58.505 2.485 58.505 4 58 C5.12771971 50.74650681 5.18357113 43.58127001 5.1875 36.25 C5.20586914 34.42275391 5.20586914 34.42275391 5.22460938 32.55859375 C5.22654297 31.38941406 5.22847656 30.22023438 5.23046875 29.015625 C5.23457764 27.95633789 5.23868652 26.89705078 5.24291992 25.80566406 C4.9958975 22.95261721 4.58508342 21.36327525 3 19 C2.01 18.34 1.02 17.68 0 17 C-1.35 10.7 -1.35 10.7 0 8 C-0.165 7.38125 -0.33 6.7625 -0.5 6.125 C-1.06796534 3.71114731 -0.74944532 2.33160767 0 0 Z " fill="#35BFC6" transform="translate(185,268)"/>
<path d="M0 0 C11.24170003 -0.79665591 20.67235135 1.63917979 29.671875 8.53515625 C31 10 31 10 31 13 C29.67815145 15.06795862 28.32582338 17.02663797 26.875 19 C22.74982501 24.76055594 19.22774871 30.6837388 16 37 C15.01 37 14.02 37 13 37 C13 36.01 13 35.02 13 34 C13.99 34 14.98 34 16 34 C15.9175 33.236875 15.835 32.47375 15.75 31.6875 C16.28572413 23.78556907 19.8930293 16.65612493 24 10 C24.33 9.34 24.66 8.68 25 8 C24.34 8 23.68 8 23 8 C22.67 8.66 22.34 9.32 22 10 C20.68 10 19.36 10 18 10 C17.34 9.34 16.68 8.68 16 8 C16 6.68 16 5.36 16 4 C15.34 4 14.68 4 14 4 C14 3.34 14 2.68 14 2 C13.11248047 2.01740234 13.11248047 2.01740234 12.20703125 2.03515625 C7.99768215 2.08322386 4.1077667 2.06006883 0 1 C0 0.67 0 0.34 0 0 Z " fill="#098A9A" transform="translate(128,86)"/>
<path d="M0 0 C0.66 0.33 1.32 0.66 2 1 C1.72690064 4.91442413 1.25007787 6.7026101 -1.3125 9.75 C-3.53534124 11.61098336 -5.33866108 12.91575081 -8 14 C-3.95233201 14 -2.90999601 12.76804499 0 10 C1.50969902 7.72571148 2.73843957 5.42967193 4 3 C4.66 3 5.32 3 6 3 C4.83220661 9.67310509 0.28118179 13.25259942 -5 17 C-9.78745782 19.47422599 -14.22958471 20.05139488 -19.5625 20.25 C-25.9217009 20.70991439 -28.76457929 23.49052265 -33 28 C-34.66539373 29.64712139 -36.33206739 31.29294962 -38 32.9375 C-39.33586929 34.28916504 -40.6701338 35.64242826 -42 37 C-42.66 36.67 -43.32 36.34 -44 36 C-35.11328125 27.11328125 -35.11328125 27.11328125 -33.51733398 25.53491211 C-32.11226481 24.11356538 -30.76781094 22.63298174 -29.4296875 21.1484375 C-26.66416418 18.70303906 -25.43791051 18.38380157 -21.8125 18.3125 C-17.9368548 18.35443076 -17.9368548 18.35443076 -15 16 C-14.64587656 14.67203709 -14.31478446 13.33783393 -14 12 C-13.1875 9.8125 -13.1875 9.8125 -12 8 C-9.875 7.25 -9.875 7.25 -8 7 C-8 6.34 -8 5.68 -8 5 C-6.02 5.33 -4.04 5.66 -2 6 C-1.855625 5.38125 -1.71125 4.7625 -1.5625 4.125 C-1 2 -1 2 0 0 Z " fill="#17B6C9" transform="translate(289,202)"/>
<path d="M0 0 C-2.79476962 1.5603086 -4.94004084 2.23768317 -8.125 2.4375 C-9.40375 2.623125 -10.6825 2.80875 -12 3 C-14.18490007 5.67642489 -14.18490007 5.67642489 -14 8 C-14.66 8 -15.32 8 -16 8 C-16 8.66 -16 9.32 -16 10 C-18.4375 9.625 -18.4375 9.625 -21 9 C-21.33 8.34 -21.66 7.68 -22 7 C-22.66 7 -23.32 7 -24 7 C-24.33 7.66 -24.66 8.32 -25 9 C-25.825 9.598125 -26.65 10.19625 -27.5 10.8125 C-30.39532773 13.34591176 -30.33296996 14.37897979 -31 18 C-33.0625 19.3125 -33.0625 19.3125 -35 20 C-35 21.32 -35 22.64 -35 24 C-35.66 24 -36.32 24 -37 24 C-37.33 24.66 -37.66 25.32 -38 26 C-39.33333333 28.66666667 -40.66666667 31.33333333 -42 34 C-42.99 34 -43.98 34 -45 34 C-45.33 34.66 -45.66 35.32 -46 36 C-45.3080253 25.15906297 -38.59388321 17.30755647 -31 10 C-21.81632457 2.36872522 -11.86111435 -0.82591899 0 0 Z " fill="#078696" transform="translate(127,86)"/>
<path d="M0 0 C4.57390649 0.43882498 8.19133116 2.54435005 12.125 4.75 C19.61837473 8.85137621 27.25807363 12.421685 35.125 15.75 C38 17 38 17 39 18 C39.43364866 21.2090001 39.33094097 22.55450254 37.375 25.1875 C31.35297367 29.78325694 24.29981508 29.776158 17 29 C9.36339683 26.65135777 4.74342827 19.68799383 1.125 13 C-0.9173067 8.7124651 -1.60041192 5.70322673 -1 1 C-0.67 0.67 -0.34 0.34 0 0 Z M1 2 C1.29920833 9.92902067 4.27542672 16.72966662 9.51953125 22.7421875 C13.48549452 26.27911517 17.33704547 28.00392766 22.6484375 27.99609375 C29.91028786 27.60610531 29.91028786 27.60610531 36 24 C36.88658466 21.40877257 36.88658466 21.40877257 37 19 C33.93144268 16.44894285 31.07119435 15.17442058 27.3125 13.875 C20.73715388 11.44660513 14.69518105 8.32783898 8.56176758 4.94677734 C4.99287647 2.77711108 4.99287647 2.77711108 1 2 Z " fill="#42D5DD" transform="translate(196,39)"/>
<path d="M0 0 C11.86340362 1.75033824 20.2464427 9.02476298 29.46875 16.2578125 C32.63960779 18.7386484 35.8684391 21.13422827 39.10791016 23.52441406 C58.58042408 37.9264847 58.58042408 37.9264847 62 45 C62.328125 47.75390625 62.328125 47.75390625 62.25 50.5625 C62.23453125 51.49191406 62.2190625 52.42132813 62.203125 53.37890625 C62.02233756 55.7117596 61.65354209 57.76003719 61 60 C60.34 60 59.68 60 59 60 C58.505 60.99 58.505 60.99 58 62 C58.165 61.236875 58.33 60.47375 58.5 59.6875 C59.33521126 53.52781699 59.78098803 47.02143572 58 41 C57.34 41 56.68 41 56 41 C55.48308594 40.31292969 54.96617187 39.62585938 54.43359375 38.91796875 C51.1385954 34.96714409 47.23183486 32.28866933 43.0625 29.3125 C41.3441688 28.06892792 39.6267236 26.82413069 37.91015625 25.578125 C37.0711377 24.97033203 36.23211914 24.36253906 35.36767578 23.73632812 C32.19379728 21.40877359 29.0954762 18.99261133 26 16.5625 C17.45238124 9.97574182 9.64407832 4.42435623 -1 2 C-0.67 1.34 -0.34 0.68 0 0 Z " fill="#3BCED4" transform="translate(239,26)"/>
<path d="M0 0 C4.46032154 1.41919322 7.32854034 3.86616391 10.625 7.0625 C14.43292816 10.65920256 18.27565618 14.10644036 22.375 17.375 C26.14777377 20.39321902 29.67109537 23.55783241 33.14624023 26.90576172 C45.2479037 38.55243044 45.2479037 38.55243044 60.96875 43.21484375 C64.43955108 42.84773979 66.91338227 41.63409174 70 40 C70.804375 39.608125 71.60875 39.21625 72.4375 38.8125 C72.953125 38.544375 73.46875 38.27625 74 38 C69.375 43.875 69.375 43.875 66 45 C55.00607238 46.21052272 47.68490946 41.97836353 39.0859375 35.53515625 C34.72598828 31.95337519 30.64630302 28.10403945 26.55932617 24.21655273 C22.06754239 19.95156308 17.4236154 15.97706383 12.5859375 12.10546875 C8.24919509 8.5744957 4.01146275 4.89834124 0 1 C0 0.67 0 0.34 0 0 Z " fill="#43D6DE" transform="translate(185,92)"/>
<path d="M0 0 C0 3.61912151 -0.61886415 4.0418928 -3 6.625 C-3.609646 7.30820313 -4.21929199 7.99140625 -4.84741211 8.6953125 C-7 11 -7 11 -9.10766602 12.83349609 C-13.91550008 17.30954172 -15.71125564 21.08646234 -15.96484375 27.625 C-16.02217707 30.41930407 -15.98774985 33.20585251 -15.9375 36 C-15.93677895 38.14056928 -15.94696926 40.28085767 -15.95936584 42.42138672 C-15.9645847 44.34215649 -15.94378642 46.26294467 -15.92163086 48.18359375 C-16 51 -16 51 -17 52 C-17.15858842 54.14386657 -17.25129298 56.29266838 -17.31640625 58.44140625 C-17.35830078 59.74658203 -17.40019531 61.05175781 -17.44335938 62.39648438 C-17.48317608 63.7851533 -17.52288825 65.17382522 -17.5625 66.5625 C-17.60567989 67.95509183 -17.649294 69.34767028 -17.69335938 70.74023438 C-17.79985876 74.16004801 -17.90186923 77.57993763 -18 81 C-18.33 81 -18.66 81 -19 81 C-19.0980004 64.9384889 -19.15175324 48.87031956 -18.75 32.8125 C-18.73590088 31.70479248 -18.72180176 30.59708496 -18.70727539 29.45581055 C-18.43486595 20.76384343 -15.83632901 16.50199933 -9.5625 10.5 C-6.12618291 7.14874026 -2.98503713 3.7553693 0 0 Z " fill="#28CAD4" transform="translate(242,241)"/>
<path d="M0 0 C0.66 0 1.32 0 2 0 C2.40605469 1.31871094 2.40605469 1.31871094 2.8203125 2.6640625 C9.95601637 24.6943164 21.04310911 45.78309303 31.70703125 66.28125 C33 69 33 69 33 71 C32.34 71 31.68 71 31 71 C0 9.79942693 0 9.79942693 0 0 Z " fill="#3CC3CC" transform="translate(140,166)"/>
<path d="M0 0 C4.16507424 1.7585869 6.20882468 3.85201505 8 8 C8.54223844 12.26044487 8.30065535 14.42096006 6.3125 18.25 C3.22869952 21.91722219 0.92892114 23.65708069 -3.8125 24.5 C-8.22118211 23.80844202 -11.61462276 21.89739494 -15 19 C-17.09901151 15.54678751 -17.48522214 13.04351787 -17 9 C-13.06960901 1.57592812 -8.22707345 -1.21820763 0 0 Z M-13 5 C-15.25497853 7.74519126 -15 9.29470687 -15 12.9375 C-14.44006701 16.42080405 -13.86356231 17.15592879 -11.375 20 C-7.42625653 22.33999613 -5.51130687 22.73821385 -1 22 C2.03560696 20.17863582 3.60600091 18.68054389 5.375 15.625 C6.17298003 12.27348387 6.03027506 10.29688018 5 7 C2.3979108 3.55605841 0.69899566 2.2160532 -3.4375 0.9375 C-7.88069934 1.01545087 -9.66145471 2.12729824 -13 5 Z " fill="#3DD4D9" transform="translate(200,161)"/>
<path d="M0 0 C5.03637309 4.1041598 5.03637309 4.1041598 5.48828125 7.875 C5.61800555 11.93741893 5.62432746 14.25838336 3.5 17.82421875 C-0.6010257 21.58349231 -4.03128527 22.39557296 -9.49609375 22.26953125 C-13.44631201 21.5986103 -15.06646431 19.8320628 -17.75 16.88671875 C-19.44208257 14.01753526 -19.75 12.33490967 -19.75 9.01171875 C-18.40596381 4.81160567 -16.11173088 1.74458364 -12.75 -1.11328125 C-8.44789096 -2.64310784 -3.93350533 -2.50234156 0 0 Z M-15.75 3.88671875 C-17.67358449 8.13463449 -17.96592126 10.12464372 -16.6875 14.63671875 C-14.57917482 18.17326421 -13.61145868 19.51375566 -9.75 20.88671875 C-5.75596081 21.06971258 -2.72662761 20.48772036 0.6875 18.38671875 C2.99055343 14.70183326 3.45030788 11.20104233 3.25 6.88671875 C2.04274538 3.90035206 1.05179008 2.48806131 -1.5 0.57421875 C-7.36681179 -1.21841819 -11.59751148 -0.74033989 -15.75 3.88671875 Z " fill="#3CD6E1" transform="translate(280.75,269.11328125)"/>
<path d="M0 0 C0.66 0 1.32 0 2 0 C2.1238948 4.89289165 2.21447509 9.78486427 2.2746582 14.67895508 C2.29975347 16.34252839 2.33383796 18.00599196 2.37719727 19.66918945 C2.4380746 22.06489153 2.46625769 24.45913251 2.48828125 26.85546875 C2.51408768 27.5952446 2.5398941 28.33502045 2.56648254 29.09721375 C2.56862032 33.06164318 2.19708858 34.76186487 -0.36328125 37.85546875 C-1.23339844 38.56316406 -2.10351562 39.27085937 -3 40 C-3.88300781 40.81082031 -4.76601562 41.62164062 -5.67578125 42.45703125 C-6.98095703 43.62298828 -6.98095703 43.62298828 -8.3125 44.8125 C-9.19550781 45.60269531 -10.07851562 46.39289063 -10.98828125 47.20703125 C-11.65214844 47.79871094 -12.31601563 48.39039063 -13 49 C-15.33779524 48.04362922 -16.71629369 47.46790368 -18.046875 45.2734375 C-18.69791667 43.515625 -19.34895833 41.7578125 -20 40 C-19.01 40.33 -18.02 40.66 -17 41 C-16.67 42.65 -16.34 44.3 -16 46 C-11.91118611 45.45673102 -9.78087079 43.30287186 -6.8125 40.5625 C-5.93207031 39.75941406 -5.05164063 38.95632812 -4.14453125 38.12890625 C-0.48097665 34.49204421 -0.79555986 31.28053991 -0.68359375 26.3671875 C-0.66281265 25.61535187 -0.64203156 24.86351624 -0.62062073 24.08889771 C-0.55517295 21.68435915 -0.49626262 19.27971033 -0.4375 16.875 C-0.39431023 15.24608229 -0.35069579 13.61717578 -0.30664062 11.98828125 C-0.19949649 7.99230085 -0.09821567 3.99620941 0 0 Z " fill="#34D2DC" transform="translate(192,198)"/>
<path d="M0 0 C0.99 0.66 1.98 1.32 3 2 C5.11280345 2.63292383 5.11280345 2.63292383 7 3 C5.68 4.65 4.36 6.3 3 8 C3.66 8 4.32 8 5 8 C5.33 7.34 5.66 6.68 6 6 C6 9.63 6 13.26 6 17 C7.65 16.67 9.3 16.34 11 16 C11 16.66 11 17.32 11 18 C11.66 18 12.32 18 13 18 C14.125 22.75 14.125 22.75 13 25 C11.68 25 10.36 25 9 25 C8.46890625 24.05898438 7.9378125 23.11796875 7.390625 22.1484375 C6.67720096 20.89055828 5.96365265 19.63274953 5.25 18.375 C4.90195313 17.75753906 4.55390625 17.14007813 4.1953125 16.50390625 C1.94881649 12.55173734 -0.43567314 8.75408212 -3 5 C-2.34 4.67 -1.68 4.34 -1 4 C-0.34786708 1.97536745 -0.34786708 1.97536745 0 0 Z " fill="#14B3C4" transform="translate(146,256)"/>
<path d="M0 0 C4.85972333 4.04415686 9.41404582 8.28833137 13.8515625 12.7890625 C14.4734848 13.41477142 15.0954071 14.04048035 15.73617554 14.68515015 C17.70159101 16.66266334 19.66370243 18.64340315 21.625 20.625 C24.21842141 23.24511839 26.81520721 25.86183505 29.4140625 28.4765625 C30.29392319 29.3688707 30.29392319 29.3688707 31.19155884 30.27920532 C33.68670854 32.78913549 36.1195389 35.09371866 38.91162109 37.28271484 C39.60078613 37.84941895 40.28995117 38.41612305 41 39 C41 39.66 41 40.32 41 41 C38.17541666 39.70522357 36.03778221 38.3174384 33.77734375 36.19140625 C33.1652002 35.61825684 32.55305664 35.04510742 31.92236328 34.45458984 C31.2673584 33.8302002 30.61235352 33.20581055 29.9375 32.5625 C29.25155762 31.9123291 28.56561523 31.2621582 27.85888672 30.59228516 C25.56319378 28.40441944 23.27972749 26.20449509 21 24 C20.15099121 23.17967285 19.30198242 22.3593457 18.42724609 21.51416016 C15.81541309 18.97881828 13.2178302 16.42976215 10.625 13.875 C9.38544556 12.66759155 9.38544556 12.66759155 8.12084961 11.43579102 C7.35135986 10.67065186 6.58187012 9.9055127 5.7890625 9.1171875 C5.10537598 8.44284668 4.42168945 7.76850586 3.71728516 7.07373047 C1.85089402 4.8199451 0.93806698 2.75658453 0 0 Z " fill="#45DBE1" transform="translate(83,234)"/>
<path d="M0 0 C0.66 0 1.32 0 2 0 C-0.35012289 9.40049157 -7.44073293 16.31543116 -15 22 C-15.66 22 -16.32 22 -17 22 C-16.01 17.71 -15.02 13.42 -14 9 C-20.93 8.01 -27.86 7.02 -35 6 C-35 5.67 -35 5.34 -35 5 C-32.4783624 5.11503269 -29.9581881 5.24174777 -27.4375 5.375 C-26.38079102 5.42140625 -26.38079102 5.42140625 -25.30273438 5.46875 C-20.58704259 5.72952558 -16.49614504 6.54658123 -12 8 C-12 10.64 -12 13.28 -12 16 C-7.85388011 13.05989433 -5.70883542 10.20879938 -3.3125 5.75 C-2.26227996 3.80325066 -1.17127884 1.87640641 0 0 Z " fill="#3CD3DB" transform="translate(296,89)"/>
<path d="M0 0 C2 2 2 2 2.17131042 4.73698425 C2.13435562 5.9016774 2.09740082 7.06637054 2.05932617 8.26635742 C2.0223613 9.5850029 1.98539642 10.90364838 1.9473114 12.26225281 C1.89619457 13.71000317 1.84473852 15.15774159 1.79296875 16.60546875 C1.74688049 18.08797324 1.70158824 19.57050268 1.65705872 21.05305481 C1.56143599 24.1662248 1.45901737 27.27907045 1.35131836 30.3918457 C1.21387262 34.36814982 1.08867298 38.3447123 0.96805859 42.32155895 C0.8744734 45.3869986 0.77654891 48.45228672 0.6771183 51.51754189 C0.62968198 52.98263288 0.58304859 54.44775011 0.53725243 55.9128933 C0.4718185 57.97097782 0.40110446 60.02881463 0.32885742 62.08666992 C0.28951584 63.25534103 0.25017426 64.42401215 0.2096405 65.62809753 C-0.00786404 69.12648694 -0.45898338 72.53810317 -1 76 C-1.33 76 -1.66 76 -2 76 C-2.02574016 68.81820457 -2.043027 61.63642139 -2.05493164 54.45458984 C-2.05990407 52.02066605 -2.06668437 49.58674516 -2.07543945 47.15283203 C-2.11714609 35.24435943 -2.13464571 23.35037263 -1.55859375 11.453125 C-1.51960464 10.63124695 -1.48061554 9.8093689 -1.44044495 8.96258545 C-1.26301865 5.77178598 -1.01555841 3.04667524 0 0 Z " fill="#37DDE7" transform="translate(213,253)"/>
<path d="M0 0 C2 3 2 3 2 5 C2.66 5.33 3.32 5.66 4 6 C3.34 6.66 2.68 7.32 2 8 C4.61514317 10.12038635 7.19637616 12.13091744 10 14 C10.6875 16.125 10.6875 16.125 11 18 C9.35 17.67 7.7 17.34 6 17 C6.48210937 17.45890625 6.96421875 17.9178125 7.4609375 18.390625 C8.40839844 19.31101563 8.40839844 19.31101563 9.375 20.25 C10.00148438 20.85328125 10.62796875 21.4565625 11.2734375 22.078125 C12.97310161 23.9700588 13.98459866 25.68201309 15 28 C11.08184961 26.43815664 8.89360608 23.93904114 6.125 20.8125 C4.81789063 19.34296875 4.81789063 19.34296875 3.484375 17.84375 C0.63359738 14.58059575 -2.20440264 11.31057582 -5 8 C-4.67 7.34 -4.34 6.68 -4 6 C-2.02 7.98 -0.04 9.96 2 12 C1.154375 10.9275 0.30875 9.855 -0.5625 8.75 C-3.05974379 5.58276398 -3.05974379 5.58276398 -2.77734375 2.828125 C-2 1 -2 1 0 0 Z " fill="#1AB5C5" transform="translate(66,204)"/>
<path d="M0 0 C0.66 0 1.32 0 2 0 C2.53625 1.175625 3.0725 2.35125 3.625 3.5625 C8.48736316 13.13527747 15.57493989 18.52015224 25.5625 22.375 C29.75942569 23.1380774 33.74910009 23.17350612 38 23 C37.01 24.65 36.02 26.3 35 28 C34.505 26.515 34.505 26.515 34 25 C32.2984375 25.12375 32.2984375 25.12375 30.5625 25.25 C23.28618993 25.25 16.61333556 21.39304522 11 17 C4 9.85772358 4 9.85772358 4 7 C3.34 7 2.68 7 2 7 C0 4 0 4 0 0 Z " fill="#3CCCCE" transform="translate(225,102)"/>
<path d="M0 0 C4.87264654 1.8046839 7.9218075 5.74593902 10.12109375 10.34375 C12.32907298 17.0167539 11.88257375 23.98789154 8.875 30.3125 C6.40221602 34.69832602 3.43173666 38.32883985 0 42 C-0.495 40.515 -0.495 40.515 -1 39 C0.109375 37.38671875 0.109375 37.38671875 1.75 35.6875 C7.68341803 29.50925647 8.59327849 23.76928696 8.42578125 15.4296875 C7.84075454 10.7172705 6.2703387 7.42694647 3 4 C2.01 3.34 1.02 2.68 0 2 C0 1.34 0 0.68 0 0 Z " fill="#3AC5C8" transform="translate(208,153)"/>
<path d="M0 0 C0.33 0.66 0.66 1.32 1 2 C1.66 2 2.32 2 3 2 C4 5 4 5 3.0625 7.1875 C2.5365625 8.0846875 2.5365625 8.0846875 2 9 C3.98 8.67 5.96 8.34 8 8 C8 9.66666667 8 11.33333333 8 13 C8.99 13.66 9.98 14.32 11 15 C11.33 15.99 11.66 16.98 12 18 C10.68 18.33 9.36 18.66 8 19 C2.555 12.07 2.555 12.07 -3 5 C-2.01 3.35 -1.02 1.7 0 0 Z " fill="#14B0C1" transform="translate(133,240)"/>
<path d="M0 0 C0.66 0 1.32 0 2 0 C4.44166784 6.83085645 5.41640288 12.7515055 5 20 C2.525 19.01 2.525 19.01 0 18 C-1.125 10.25 -1.125 10.25 0 8 C-0.165 7.38125 -0.33 6.7625 -0.5 6.125 C-1.06796534 3.71114731 -0.74944532 2.33160767 0 0 Z " fill="#20BBC8" transform="translate(185,268)"/>
<path d="M0 0 C1.32 0 2.64 0 4 0 C4.33 2.64 4.66 5.28 5 8 C4.38125 8.04125 3.7625 8.0825 3.125 8.125 C0.69020523 8.83845276 0.69020523 8.83845276 -0.1875 11.75 C-0.87334275 14.49337098 -1.50863699 17.21560963 -2 20 C-2.33 20 -2.66 20 -3 20 C-4.51708428 7.33029613 -4.51708428 7.33029613 -2 2 C-1.34 2 -0.68 2 0 2 C0 1.34 0 0.68 0 0 Z " fill="#199BAB" transform="translate(80,120)"/>
<path d="M0 0 C3.85379728 0.8563994 5.5765833 1.39310273 7.875 4.6875 C9.16355218 8.48157029 9.4976654 11.01867683 9 15 C7.27182567 18.3923422 5.97279282 20.42158265 2.6875 22.375 C-0.60243351 23.14010082 -3.6343373 23.13198677 -7 23 C-7.33 22.34 -7.66 21.68 -8 21 C-7.09507812 20.96132812 -7.09507812 20.96132812 -6.171875 20.921875 C-0.95546103 20.5965201 -0.95546103 20.5965201 3.5 18.0625 C6.06508008 14.53551489 6.2615099 12.35849839 6 8 C4.78183358 4.54852847 2.65127165 2.47452021 0 0 Z " fill="#3CD5DD" transform="translate(275,187)"/>
<path d="M0 0 C0.66 0.33 1.32 0.66 2 1 C2 2.32 2 3.64 2 5 C1.34 5 0.68 5 0 5 C-0.33 5.66 -0.66 6.32 -1 7 C-2.33333333 9.66666667 -3.66666667 12.33333333 -5 15 C-5.99 15 -6.98 15 -8 15 C-8.33 15.66 -8.66 16.32 -9 17 C-8.60984266 10.88753508 -6.67477827 5.94926784 -3 1 C-2.01 0.67 -1.02 0.34 0 0 Z " fill="#0E8D9F" transform="translate(90,105)"/>
<path d="M0 0 C0.99 0 1.98 0 3 0 C3.33 1.98 3.66 3.96 4 6 C4.99 6.33 5.98 6.66 7 7 C7.33 9.31 7.66 11.62 8 14 C8.99 14 9.98 14 11 14 C10.67 15.65 10.34 17.3 10 19 C10.66 19 11.32 19 12 19 C12 20.98 12 22.96 12 25 C11.34 25 10.68 25 10 25 C9.67 25.99 9.34 26.98 9 28 C8.76925781 26.98421875 8.53851563 25.9684375 8.30078125 24.921875 C6.26278349 16.22754775 3.76182212 8.14033638 0 0 Z " fill="#0FB4C5" transform="translate(156,282)"/>
<path d="M0 0 C0.99 0.33 1.98 0.66 3 1 C2.01 2.485 2.01 2.485 1 4 C0.50472751 5.40417914 0.04918655 6.82273701 -0.375 8.25 C-1.75481214 12.57341136 -3.62062695 16.14377472 -6 20 C-6.99 20 -7.98 20 -9 20 C-9 19.01 -9 18.02 -9 17 C-8.01 17 -7.02 17 -6 17 C-6.061875 16.195625 -6.12375 15.39125 -6.1875 14.5625 C-5.95250294 10.09755577 -4.96076252 6.03449078 -3 2 C-2.01 1.34 -1.02 0.68 0 0 Z " fill="#0D90A3" transform="translate(150,103)"/>
<path d="M0 0 C0 0.66 0 1.32 0 2 C1.65 2 3.3 2 5 2 C5 2.66 5 3.32 5 4 C4.41476562 3.9278125 3.82953125 3.855625 3.2265625 3.78125 C-2.98207029 3.11004646 -9.13607665 2.89018294 -15.375 2.875 C-16.14763184 2.87048828 -16.92026367 2.86597656 -17.71630859 2.86132812 C-21.61108008 2.87149503 -25.19645092 3.04532434 -29 4 C-28 2 -28 2 -25.453125 0.87890625 C-21.41983534 -0.14766635 -17.88172326 -0.18735977 -13.75 -0.0625 C-8.93909319 0.05389291 -4.45931778 -1.33779533 0 0 Z " fill="#3FCEDA" transform="translate(255,91)"/>
<path d="M0 0 C0.66 0 1.32 0 2 0 C2 0.66 2 1.32 2 2 C2.66 2.33 3.32 2.66 4 3 C4.8515625 4.84765625 4.8515625 4.84765625 5.625 7.0625 C5.88539063 7.79597656 6.14578125 8.52945313 6.4140625 9.28515625 C6.60742188 9.85105469 6.80078125 10.41695312 7 11 C5.71034824 12.37562854 4.37310707 13.70766393 3 15 C2.34 15 1.68 15 1 15 C-1.31067961 7.93203883 -1.31067961 7.93203883 0 4 C-0.33 3.34 -0.66 2.68 -1 2 C-0.67 1.34 -0.34 0.68 0 0 Z " fill="#14B2C1" transform="translate(169,235)"/>
<path d="M0 0 C0 0.66 0 1.32 0 2 C-1.258125 2.2475 -2.51625 2.495 -3.8125 2.75 C-6.45362327 3.43248495 -7.8579265 3.88456528 -10 5.625 C-11.46425334 9.10260168 -11.59401294 12.28361134 -11 16 C-9.66169042 18.4595774 -9.66169042 18.4595774 -8 20 C-8.33 20.66 -8.66 21.32 -9 22 C-12.15595885 20.21162332 -12.97103856 19.07447227 -14.3125 15.625 C-15.24284383 10.71955071 -14.9691547 8.48834471 -12.25 4.3125 C-8.53492292 0.49422633 -5.23826309 -0.29932932 0 0 Z " fill="#31D2DC" transform="translate(274,186)"/>
<path d="M0 0 C-3.6096805 1.64549399 -6.36639816 2.15894644 -10.3125 2.1875 C-16.80729821 2.70047603 -19.66758704 5.38725444 -24 10 C-25.66539373 11.64712139 -27.33206739 13.29294962 -29 14.9375 C-30.33586929 16.28916504 -31.6701338 17.64242826 -33 19 C-33.66 18.67 -34.32 18.34 -35 18 C-26.11328125 9.11328125 -26.11328125 9.11328125 -24.5078125 7.53222656 C-23.13943287 6.14169053 -21.85488173 4.66988686 -20.58203125 3.19140625 C-17.21291225 0.33198756 -14.73466651 0.08074423 -10.375 -0.375 C-9.70726562 -0.45621094 -9.03953125 -0.53742188 -8.3515625 -0.62109375 C-5.17464222 -0.97055498 -3.06615999 -1.02205333 0 0 Z " fill="#41D1DA" transform="translate(280,220)"/>
<path d="M0 0 C0.66 0.33 1.32 0.66 2 1 C1.835 2.175625 1.67 3.35125 1.5 4.5625 C0.17133264 16.42303165 0.17133264 16.42303165 2 28 C1.91478259 29.89952346 1.76270916 31.79663573 1.5625 33.6875 C1.46066406 34.68136719 1.35882813 35.67523438 1.25390625 36.69921875 C1.17011719 37.45847656 1.08632813 38.21773437 1 39 C-1.30876996 35.3443999 -1.24445 32.2300153 -1.23046875 27.96875 C-1.23001053 27.29581909 -1.22955231 26.62288818 -1.2290802 25.92956543 C-1.22606738 24.51080556 -1.21821016 23.09204872 -1.20581055 21.67333984 C-1.18756207 19.50736711 -1.18530101 17.34182284 -1.18554688 15.17578125 C-1.14452703 3.64878641 -1.14452703 3.64878641 0 0 Z " fill="#09AFBF" transform="translate(36,113)"/>
<path d="M0 0 C0.99 0 1.98 0 3 0 C3 0.66 3 1.32 3 2 C2.34 2 1.68 2 1 2 C3.12719162 10.77000055 7.03264623 17.54896935 12 25 C5.58968174 22.48166068 2.84234482 16.39272603 -0.0234375 10.51171875 C-1.36932499 7.05009613 -1.46778822 4.66434108 -1 1 C-0.67 0.67 -0.34 0.34 0 0 Z " fill="#36C7CB" transform="translate(196,39)"/>
<path d="M0 0 C0.33 0 0.66 0 1 0 C0.54972453 10.13119816 -6.13652766 19.83580851 -13 27 C-13.66 27 -14.32 27 -15 27 C-13.53743341 23.84431445 -11.74419361 21.1750219 -9.6875 18.375 C-5.62781076 12.65414356 -2.22389827 6.67169482 0 0 Z " fill="#37CBD2" transform="translate(187,329)"/>
<path d="M0 0 C0.66 0 1.32 0 2 0 C2 0.66 2 1.32 2 2 C2.99 2 3.98 2 5 2 C4.67 10.58 4.34 19.16 4 28 C3.67 28 3.34 28 3 28 C2.67 21.4 2.34 14.8 2 8 C1.01 8.33 0.02 8.66 -1 9 C-1 7.35 -1 5.7 -1 4 C-0.34 3.67 0.32 3.34 1 3 C0.67 2.01 0.34 1.02 0 0 Z " fill="#21C0CA" transform="translate(202,190)"/>
<path d="M0 0 C0.33 0 0.66 0 1 0 C1.65620397 25.2116932 1.65620397 25.2116932 -2 34 C-2.66 34.66 -3.32 35.32 -4 36 C-3.03644647 25.44191344 -3.03644647 25.44191344 -2 21 C-1.34 21 -0.68 21 0 21 C0 14.07 0 7.14 0 0 Z " fill="#34E2EA" transform="translate(165,310)"/>
<path d="M0 0 C1.56393356 3.97376829 0.36145292 6.81377903 -0.9375 10.75 C-1.31777344 11.92046875 -1.69804687 13.0909375 -2.08984375 14.296875 C-2.39019531 15.18890625 -2.69054687 16.0809375 -3 17 C-3.33 17 -3.66 17 -4 17 C-4.19601608 15.25093341 -4.38147403 13.50068154 -4.5625 11.75 C-4.66691406 10.77546875 -4.77132812 9.8009375 -4.87890625 8.796875 C-4.99094983 6.20902983 -4.91939769 4.40794633 -4 2 C-1.9375 0.75 -1.9375 0.75 0 0 Z " fill="#0F94A7" transform="translate(141,126)"/>
<path d="M0 0 C4.24908336 1.59846469 6.82225739 4.8130392 9.75 8.125 C10.25660156 8.68832031 10.76320313 9.25164062 11.28515625 9.83203125 C12.52884532 11.21651531 13.76516305 12.60761488 15 14 C14.67 14.66 14.34 15.32 14 16 C11.6545763 13.90899061 9.32593555 11.80014996 7 9.6875 C6.33226563 9.09259766 5.66453125 8.49769531 4.9765625 7.88476562 C4.34492187 7.30791016 3.71328125 6.73105469 3.0625 6.13671875 C2.18271484 5.34334106 2.18271484 5.34334106 1.28515625 4.53393555 C0 3 0 3 0 0 Z " fill="#0EB8C8" transform="translate(111,259)"/>
<path d="M0 0 C7.75428031 6.26941812 14.81434749 13.43240019 20 22 C16.08184961 20.43815664 13.89360608 17.93904114 11.125 14.8125 C10.25359375 13.83023438 9.3821875 12.84796875 8.484375 11.8359375 C7.66453125 10.90007812 6.8446875 9.96421875 6 9 C5.34515625 8.27039063 4.6903125 7.54078125 4.015625 6.7890625 C0 2.25714286 0 2.25714286 0 0 Z " fill="#4ADCE1" transform="translate(61,210)"/>
<path d="M0 0 C0.33 0 0.66 0 1 0 C0.55629496 6.87742809 -0.76741335 12.85198614 -4 19 C-4.66 19.33 -5.32 19.66 -6 20 C-5.21450457 14.18733381 -3.59317541 8.63122376 -2 3 C-1.34 3 -0.68 3 0 3 C0 2.01 0 1.02 0 0 Z " fill="#3CD8DC" transform="translate(210,330)"/>
<path d="M0 0 C0 3.61912151 -0.61886415 4.0418928 -3 6.625 C-3.63292969 7.32109375 -4.26585937 8.0171875 -4.91796875 8.734375 C-5.60503906 9.48203125 -6.29210937 10.2296875 -7 11 C-8.43961793 12.62312398 -9.87715275 14.24809818 -11.3125 15.875 C-13.17038307 17.97013729 -15.0198284 20.0198284 -17 22 C-16.60946164 17.09164292 -14.20186751 14.75423002 -10.75 11.5625 C-6.90686705 7.87812807 -3.2868478 4.19356443 0 0 Z " fill="#3AC9CE" transform="translate(242,241)"/>
<path d="M0 0 C2.36773078 0.08456181 3.6755838 0.70074627 5.41015625 2.30078125 C6.8125 3.875 6.8125 3.875 9 7 C8.67 7.99 8.34 8.98 8 10 C0.42857143 7 0.42857143 7 -2 4 C-1.01 4 -0.02 4 1 4 C0.34 3.01 -0.32 2.02 -1 1 C-0.67 0.67 -0.34 0.34 0 0 Z " fill="#1BB7C7" transform="translate(82,228)"/>
<path d="M0 0 C2.125 -0.4375 2.125 -0.4375 5 0 C7.39588217 2.04419305 9.43818868 4.25802299 11 7 C10.67 7.99 10.34 8.98 10 10 C8.32756598 8.71580959 6.66218553 7.42242815 5 6.125 C3.6078125 5.04605469 3.6078125 5.04605469 2.1875 3.9453125 C1.465625 3.30335938 0.74375 2.66140625 0 2 C0 1.34 0 0.68 0 0 Z " fill="#3FD8DC" transform="translate(124,274)"/>
<path d="M0 0 C0 3 0 3 -1.5625 5.1875 C-3.64447191 9.26092331 -2.9334168 11.54831986 -2 16 C-1.34 16.99 -0.68 17.98 0 19 C-0.99 19 -1.98 19 -3 19 C-5.09979708 16.35581109 -5.93944092 14.406611 -6.4375 11.0625 C-5.76429645 6.35007516 -3.30899233 3.30899233 0 0 Z " fill="#2FC8C8" transform="translate(189,162)"/>
<path d="M0 0 C3.92612543 3.05365311 6.87250844 5.39043496 9 10 C9.20984775 12.85672736 9.28649823 15.47201222 9.1875 18.3125 C9.17396484 19.05306641 9.16042969 19.79363281 9.14648438 20.55664062 C9.11135979 22.37141075 9.05755972 24.18580288 9 26 C8.67 26 8.34 26 8 26 C7.96132813 24.7315625 7.96132813 24.7315625 7.921875 23.4375 C7.54221584 15.84431689 7.12500752 9.00658625 1.3671875 3.4140625 C0 2 0 2 0 0 Z " fill="#38CDD3" transform="translate(288,259)"/>
<path d="M0 0 C0.66 0 1.32 0 2 0 C1.6596875 1.5159375 1.6596875 1.5159375 1.3125 3.0625 C0.9267058 7.92350694 1.6821625 9.77822455 4 14 C4.99 14.66 5.98 15.32 7 16 C6.67 16.66 6.34 17.32 6 18 C-0.96880968 12.69764481 -0.96880968 12.69764481 -2 8 C-1.70647502 5.0060452 -1.34525472 2.69050945 0 0 Z " fill="#33C8CF" transform="translate(263,273)"/>
<path d="M0 0 C2.8469589 0.51762889 5.49335583 1.16128941 8.25 2.0625 C12.61521386 3.15380346 16.53272662 3.18233769 21 3 C20.01 4.65 19.02 6.3 18 8 C17.67 7.01 17.34 6.02 17 5 C15.2984375 5.12375 15.2984375 5.12375 13.5625 5.25 C8.43513383 5.28668956 4.47921476 3.3225558 0 1 C0 0.67 0 0.34 0 0 Z " fill="#42D7DB" transform="translate(242,122)"/>
<path d="M0 0 C0.33 0 0.66 0 1 0 C1.24849534 2.93703525 1.47448285 5.87286332 1.6875 8.8125 C1.76033203 9.64587891 1.83316406 10.47925781 1.90820312 11.33789062 C1.96298828 12.14033203 2.01777344 12.94277344 2.07421875 13.76953125 C2.13182373 14.50792236 2.18942871 15.24631348 2.2487793 16.00708008 C1.92886446 18.56985222 0.95066193 19.38819592 -1 21 C-1.02719556 18.62492145 -1.04693247 16.25016036 -1.0625 13.875 C-1.07087891 13.20984375 -1.07925781 12.5446875 -1.08789062 11.859375 C-1.10782292 7.79318646 -0.78890161 3.9879908 0 0 Z " fill="#18B8CC" transform="translate(167,308)"/>
<path d="M0 0 C0.66 0.66 1.32 1.32 2 2 C-2.455 2.495 -2.455 2.495 -7 3 C-7 2.34 -7 1.68 -7 1 C-11.455 1.495 -11.455 1.495 -16 2 C-11.78057498 -2.21942502 -5.46162009 -1.23396132 0 0 Z " fill="#0CB6C3" transform="translate(202,151)"/>
<path d="M0 0 C0.66 0 1.32 0 2 0 C0.84164787 6.61915501 -3.85684548 10.15867782 -9 14 C-9.99 14.33 -10.98 14.66 -12 15 C-10.88615391 11.65846174 -10.52117707 11.473264 -7.6875 9.75 C-3.71405392 7.0765085 -2.09089525 4.26542631 0 0 Z " fill="#3FCACF" transform="translate(293,205)"/>
<path d="M0 0 C0.33 0 0.66 0 1 0 C1.17568413 4.47994538 1.29545711 8.06493066 -1 12 C-5.18045211 15.56567974 -8.76394117 15.26624028 -14 15 C-13.67 14.34 -13.34 13.68 -13 13 C-11.00660901 12.77493973 -9.01059507 12.55595654 -7.0078125 12.44140625 C-4.43051372 11.87480165 -3.57506672 11.10320482 -2 9 C-1.21643098 6.73606029 -1.21643098 6.73606029 -0.8125 4.3125 C-0.65394531 3.50425781 -0.49539063 2.69601562 -0.33203125 1.86328125 C-0.22246094 1.24839844 -0.11289062 0.63351562 0 0 Z " fill="#40D1D9" transform="translate(284,276)"/>
<path d="M0 0 C1.40503535 2.59391142 2.57705808 5.26973914 3.6875 8 C3.95949219 8.66 4.23148438 9.32 4.51171875 10 C5.08433496 12.34543601 4.75352292 13.73437404 4 16 C3.34 15.67 2.68 15.34 2 15 C1.34 15 0.68 15 0 15 C0.66 12.69 1.32 10.38 2 8 C1.34 8 0.68 8 0 8 C-0.79953138 4.71303767 -1.09658936 3.28976808 0 0 Z " fill="#0A9DAE" transform="translate(137,159)"/>
<path d="M0 0 C3 1 3 1 4.1875 3.375 C5 6 5 6 5 9 C3.35 9.33 1.7 9.66 0 10 C-0.33 8.35 -0.66 6.7 -1 5 C-0.34 5 0.32 5 1 5 C0.67 3.35 0.34 1.7 0 0 Z " fill="#12ADC0" transform="translate(162,222)"/>
<path d="M0 0 C0.66796875 1.7421875 0.66796875 1.7421875 1 4 C-0.07421875 6.0703125 -0.07421875 6.0703125 -1.6875 8.125 C-2.20699219 8.80820312 -2.72648438 9.49140625 -3.26171875 10.1953125 C-5.06315462 12.06556727 -6.62397539 12.99575431 -9 14 C-7.45158425 10.65291949 -5.50894136 7.75332488 -3.375 4.75 C-2.74335938 3.85796875 -2.11171875 2.9659375 -1.4609375 2.046875 C-0.73777344 1.03367187 -0.73777344 1.03367187 0 0 Z " fill="#3DCDD2" transform="translate(203,348)"/>
<path d="M0 0 C0.99 0.66 1.98 1.32 3 2 C3 5 3 5 1.5 6.6875 C1.005 7.120625 0.51 7.55375 0 8 C-1.32 7.34 -2.64 6.68 -4 6 C-2.84826645 3.53199953 -1.95216435 1.95216435 0 0 Z " fill="#1CB6C5" transform="translate(243,234)"/>
<path d="M0 0 C1.4540625 0.0309375 1.4540625 0.0309375 2.9375 0.0625 C2.6075 2.0425 2.2775 4.0225 1.9375 6.0625 C0.0625 5.8125 0.0625 5.8125 -2.0625 5.0625 C-3.3125 3 -3.3125 3 -4.0625 1.0625 C-3.0625 0.0625 -3.0625 0.0625 0 0 Z " fill="#13AEBF" transform="translate(125.0625,231.9375)"/>
<path d="M0 0 C0.99 0.33 1.98 0.66 3 1 C2.67 2.32 2.34 3.64 2 5 C1.34 5 0.68 5 0 5 C0 5.66 0 6.32 0 7 C-1.65 6.67 -3.3 6.34 -5 6 C-3.63016497 2.83884224 -3.0109362 2.0072908 0 0 Z " fill="#0B8998" transform="translate(111,89)"/>
<path d="M0 0 C0.53625 0.7425 1.0725 1.485 1.625 2.25 C4.15264739 5.17674961 6.71827368 6.98621339 10 9 C9.67 9.99 9.34 10.98 9 12 C4.7835599 10.43835552 2.58130177 7.58514135 0 4 C0 2.68 0 1.36 0 0 Z " fill="#16ACBF" transform="translate(102,207)"/>
<path d="M0 0 C4.3488459 0.50178991 6.89443878 3.09697538 10 6 C11.4375 8.125 11.4375 8.125 12 10 C11.67 10.99 11.34 11.98 11 13 C10.70867187 12.46890625 10.41734375 11.9378125 10.1171875 11.390625 C7.28209961 6.50500184 4.8719485 3.8325282 0 1 C0 0.67 0 0.34 0 0 Z " fill="#0DB3BE" transform="translate(204,153)"/>
<path d="M0 0 C0.33 0.99 0.66 1.98 1 3 C1.66 3 2.32 3 3 3 C4.60355101 6.50776784 5.22036864 9.14354879 5 13 C4.01 13.33 3.02 13.66 2 14 C1.855625 12.80375 1.71125 11.6075 1.5625 10.375 C1.12960657 6.8994842 0.60383744 3.45049966 0 0 Z " fill="#3BCCD6" transform="translate(250,282)"/>
<path d="M0 0 C1.89213369 2.38573379 3.02391783 4.07175348 4 7 C2.68 7 1.36 7 0 7 C-0.66 7.66 -1.32 8.32 -2 9 C-2 6.36 -2 3.72 -2 1 C-1.34 0.67 -0.68 0.34 0 0 Z " fill="#11AABC" transform="translate(154,202)"/>
<path d="M0 0 C0.86625 0.33 1.7325 0.66 2.625 1 C7.31344704 2.38916949 11.32419329 2.43870976 16 1 C15.34 2.32 14.68 3.64 14 5 C9.02906176 4.58846263 4.55491614 4.20399168 0 2 C0 1.34 0 0.68 0 0 Z " fill="#0EB0BF" transform="translate(187,182)"/>
<path d="M0 0 C10.34060481 1.8781013 10.34060481 1.8781013 13 5 C13.25 7.6875 13.25 7.6875 13 10 C12.938125 9.38125 12.87625 8.7625 12.8125 8.125 C12.19772624 5.7997142 12.19772624 5.7997142 9.875 4.9375 C8.92625 4.628125 7.9775 4.31875 7 4 C5.72457578 3.4692334 4.45377845 2.92723096 3.1875 2.375 C2.135625 1.92125 1.08375 1.4675 0 1 C0 0.67 0 0.34 0 0 Z " fill="#41DCE6" transform="translate(222,52)"/>
<path d="M0 0 C1.74216797 0.02707031 1.74216797 0.02707031 3.51953125 0.0546875 C4.39996094 0.07789063 5.28039062 0.10109375 6.1875 0.125 C6.1875 0.455 6.1875 0.785 6.1875 1.125 C4.95773437 1.18107422 4.95773437 1.18107422 3.703125 1.23828125 C2.62546875 1.30402344 1.5478125 1.36976563 0.4375 1.4375 C-0.62984375 1.49550781 -1.6971875 1.55351562 -2.796875 1.61328125 C-5.9946068 2.15590154 -7.43848691 2.97571145 -9.8125 5.125 C-10.4725 4.135 -11.1325 3.145 -11.8125 2.125 C-7.73526266 0.17468308 -4.49557578 -0.09081971 0 0 Z " fill="#06B2C1" transform="translate(274.8125,256.875)"/>
<path d="M0 0 C0.33 0 0.66 0 1 0 C1.36585366 4.51219512 1.36585366 4.51219512 -0.21875 6.625 C-2.43969138 8.33941089 -3.91049803 8.48626797 -6.6875 8.6875 C-7.49574219 8.75324219 -8.30398437 8.81898437 -9.13671875 8.88671875 C-9.75160156 8.92410156 -10.36648437 8.96148437 -11 9 C-11 8.67 -11 8.34 -11 8 C-9.906875 7.690625 -8.81375 7.38125 -7.6875 7.0625 C-5.44592006 6.41662103 -3.2130649 5.7376883 -1 5 C-0.67 3.35 -0.34 1.7 0 0 Z " fill="#41CFD5" transform="translate(233,58)"/>
<path d="M0 0 C0.33 0.99 0.66 1.98 1 3 C-0.21484375 4.82421875 -0.21484375 4.82421875 -1.9375 6.6875 C-2.50339844 7.31011719 -3.06929687 7.93273437 -3.65234375 8.57421875 C-4.09707031 9.04472656 -4.54179687 9.51523438 -5 10 C-5.33 9.01 -5.66 8.02 -6 7 C-4.78515625 5.17578125 -4.78515625 5.17578125 -3.0625 3.3125 C-2.49660156 2.68988281 -1.93070313 2.06726563 -1.34765625 1.42578125 C-0.90292969 0.95527344 -0.45820313 0.48476562 0 0 Z " fill="#37CFD6" transform="translate(220,245)"/>
<path d="M0 0 C1.15518918 0.90484792 2.29885406 1.8244206 3.4375 2.75 C4.07558594 3.26046875 4.71367188 3.7709375 5.37109375 4.296875 C7.18810554 6.19667629 7.60423197 7.43586908 8 10 C1.42857143 5 1.42857143 5 0 0 Z " fill="#4CE0E9" transform="translate(83,234)"/>
<path d="M0 0 C0.66 0 1.32 0 2 0 C2.36923077 6.52307692 2.36923077 6.52307692 0.5 8.9375 C0.005 9.288125 -0.49 9.63875 -1 10 C-2.27351308 7.45297384 -1.80191925 6.5717055 -1.0625 3.875 C-0.86785156 3.15054688 -0.67320312 2.42609375 -0.47265625 1.6796875 C-0.31667969 1.12539062 -0.16070312 0.57109375 0 0 Z " fill="#30CFDA" transform="translate(282,195)"/>
<path d="M0 0 C0.33 2.31 0.66 4.62 1 7 C-0.32 6.67 -1.64 6.34 -3 6 C-3.33 4.35 -3.66 2.7 -4 1 C-1 0 -1 0 0 0 Z " fill="#0EB5C3" transform="translate(286,189)"/>
<path d="M0 0 C1.10844919 3.32534757 0.84454356 5.62182575 0 9 C-0.66 9 -1.32 9 -2 9 C-2.33 9.99 -2.66 10.98 -3 12 C-2.14285714 3.42857143 -2.14285714 3.42857143 0 0 Z " fill="#10AFBE" transform="translate(42,93)"/>
<path d="M0 0 C0.66 0 1.32 0 2 0 C0.74194623 4.50802601 -0.90407165 7.4912812 -4 11 C-3.39301257 6.87248551 -1.96189209 3.6678852 0 0 Z " fill="#35C7CB" transform="translate(296,89)"/>
<path d="M0 0 C0.33 0 0.66 0 1 0 C0.88590407 1.45922693 0.75834456 2.91740598 0.625 4.375 C0.55539063 5.18710937 0.48578125 5.99921875 0.4140625 6.8359375 C0 9 0 9 -2 11 C-2.98120464 7.94736336 -2.98120464 6.05263664 -2 3 C-1.34 3 -0.68 3 0 3 C0 2.01 0 1.02 0 0 Z " fill="#35DBE4" transform="translate(210,330)"/>
<path d="M0 0 C0.66 0.33 1.32 0.66 2 1 C-1.96 4.465 -1.96 4.465 -6 8 C-6.66 7.67 -7.32 7.34 -8 7 C-7.360625 6.731875 -6.72125 6.46375 -6.0625 6.1875 C-3.66868314 5.11332248 -3.66868314 5.11332248 -3 2 C-2.01 1.34 -1.02 0.68 0 0 Z " fill="#0CB6BF" transform="translate(188,238)"/>
<path d="M0 0 C0.66 0.66 1.32 1.32 2 2 C1.7578125 4.1640625 1.7578125 4.1640625 1.125 6.625 C0.92132813 7.44226563 0.71765625 8.25953125 0.5078125 9.1015625 C0.34023437 9.72804687 0.17265625 10.35453125 0 11 C-0.33 11 -0.66 11 -1 11 C-1.33 7.7 -1.66 4.4 -2 1 C-1.34 0.67 -0.68 0.34 0 0 Z " fill="#0693A6" transform="translate(78,129)"/>
<path d="M0 0 C0 1.66666667 0 3.33333333 0 5 C-2.31 5.33 -4.62 5.66 -7 6 C-4.74259377 3.66475218 -2.7194239 1.81294927 0 0 Z " fill="#0AB2C2" transform="translate(147,367)"/>
<path d="M0 0 C-1.39332574 3.36720387 -2.9789286 4.9859524 -6 7 C-6 4 -6 4 -4.125 1.8125 C-2 0 -2 0 0 0 Z " fill="#3DDBE2" transform="translate(152,361)"/>
<path d="M0 0 C2.00406642 4.00813284 2.46148376 5.66205267 2 10 C1.01 10.99 0.02 11.98 -1 13 C-0.67 8.71 -0.34 4.42 0 0 Z " fill="#11AFC2" transform="translate(167,316)"/>
<path d="M0 0 C0.33 0 0.66 0 1 0 C1 3.96 1 7.92 1 12 C0.01 12 -0.98 12 -2 12 C-1.34 8.04 -0.68 4.08 0 0 Z " fill="#30C9D6" transform="translate(191,310)"/>
<path d="M0 0 C2.91517292 1.07401108 4.77810176 1.77810176 7 4 C5.02 4.99 5.02 4.99 3 6 C0 2.25 0 2.25 0 0 Z " fill="#12B0C0" transform="translate(112,222)"/>
<path d="M0 0 C0.66 0.66 1.32 1.32 2 2 C1.01 3.485 1.01 3.485 0 5 C-0.39387788 7.32387947 -0.73486085 9.65793749 -1 12 C-1.33 12 -1.66 12 -2 12 C-3.35384615 4.61538462 -3.35384615 4.61538462 -1.5625 1.5 C-1.046875 1.005 -0.53125 0.51 0 0 Z " fill="#33C2CD" transform="translate(263,189)"/>
<path d="M0 0 C0.66 0 1.32 0 2 0 C2 2.97 2 5.94 2 9 C-0.57781906 6.42218094 -0.62129616 4.5598161 -1 1 C-0.67 0.67 -0.34 0.34 0 0 Z " fill="#1BD4E2" transform="translate(212,275)"/>
<path d="M0 0 C5.875 3.625 5.875 3.625 7 7 C4.13302508 5.71480435 2.02392288 4.42870746 0 2 C0 1.34 0 0.68 0 0 Z " fill="#49E4EB" transform="translate(117,268)"/>
<path d="M0 0 C0.33 0.66 0.66 1.32 1 2 C1.66 2 2.32 2 3 2 C2.34 4.64 1.68 7.28 1 10 C0.67 10 0.34 10 0 10 C0 6.7 0 3.4 0 0 Z " fill="#0C8F9F" transform="translate(76,143)"/>
<path d="M0 0 C0.66 0 1.32 0 2 0 C3.06775224 1.96466413 4.06553465 3.96855359 5 6 C4.67 6.66 4.34 7.32 4 8 C2 6.25 2 6.25 0 4 C0 2.68 0 1.36 0 0 Z " fill="#32BFC6" transform="translate(225,102)"/>
</svg>
